%TF.GenerationSoftware,KiCad,Pcbnew,(5.1.6)-1*%
%TF.CreationDate,2020-06-05T20:50:24+02:00*%
%TF.ProjectId,TinyISPLevelShifter,54696e79-4953-4504-9c65-76656c536869,rev?*%
%TF.SameCoordinates,Original*%
%TF.FileFunction,Paste,Top*%
%TF.FilePolarity,Positive*%
%FSLAX46Y46*%
G04 Gerber Fmt 4.6, Leading zero omitted, Abs format (unit mm)*
G04 Created by KiCad (PCBNEW (5.1.6)-1) date 2020-06-05 20:50:24*
%MOMM*%
%LPD*%
G01*
G04 APERTURE LIST*
%ADD10R,3.150000X1.000000*%
%ADD11R,1.500000X2.000000*%
%ADD12R,3.800000X2.000000*%
%ADD13R,0.900000X0.800000*%
G04 APERTURE END LIST*
D10*
%TO.C,J2*%
X135763000Y-91948000D03*
X130713000Y-91948000D03*
X135763000Y-89408000D03*
X130713000Y-89408000D03*
X135763000Y-86868000D03*
X130713000Y-86868000D03*
%TD*%
%TO.C,J1*%
X157069000Y-91948000D03*
X152019000Y-91948000D03*
X157069000Y-89408000D03*
X152019000Y-89408000D03*
X157069000Y-86868000D03*
X152019000Y-86868000D03*
%TD*%
%TO.C,R11*%
G36*
G01*
X147457000Y-96188500D02*
X148707000Y-96188500D01*
G75*
G02*
X148957000Y-96438500I0J-250000D01*
G01*
X148957000Y-97363500D01*
G75*
G02*
X148707000Y-97613500I-250000J0D01*
G01*
X147457000Y-97613500D01*
G75*
G02*
X147207000Y-97363500I0J250000D01*
G01*
X147207000Y-96438500D01*
G75*
G02*
X147457000Y-96188500I250000J0D01*
G01*
G37*
G36*
G01*
X147457000Y-93213500D02*
X148707000Y-93213500D01*
G75*
G02*
X148957000Y-93463500I0J-250000D01*
G01*
X148957000Y-94388500D01*
G75*
G02*
X148707000Y-94638500I-250000J0D01*
G01*
X147457000Y-94638500D01*
G75*
G02*
X147207000Y-94388500I0J250000D01*
G01*
X147207000Y-93463500D01*
G75*
G02*
X147457000Y-93213500I250000J0D01*
G01*
G37*
%TD*%
%TO.C,R10*%
G36*
G01*
X147457000Y-91235500D02*
X148707000Y-91235500D01*
G75*
G02*
X148957000Y-91485500I0J-250000D01*
G01*
X148957000Y-92410500D01*
G75*
G02*
X148707000Y-92660500I-250000J0D01*
G01*
X147457000Y-92660500D01*
G75*
G02*
X147207000Y-92410500I0J250000D01*
G01*
X147207000Y-91485500D01*
G75*
G02*
X147457000Y-91235500I250000J0D01*
G01*
G37*
G36*
G01*
X147457000Y-88260500D02*
X148707000Y-88260500D01*
G75*
G02*
X148957000Y-88510500I0J-250000D01*
G01*
X148957000Y-89435500D01*
G75*
G02*
X148707000Y-89685500I-250000J0D01*
G01*
X147457000Y-89685500D01*
G75*
G02*
X147207000Y-89435500I0J250000D01*
G01*
X147207000Y-88510500D01*
G75*
G02*
X147457000Y-88260500I250000J0D01*
G01*
G37*
%TD*%
%TO.C,R9*%
G36*
G01*
X147457000Y-86282500D02*
X148707000Y-86282500D01*
G75*
G02*
X148957000Y-86532500I0J-250000D01*
G01*
X148957000Y-87457500D01*
G75*
G02*
X148707000Y-87707500I-250000J0D01*
G01*
X147457000Y-87707500D01*
G75*
G02*
X147207000Y-87457500I0J250000D01*
G01*
X147207000Y-86532500D01*
G75*
G02*
X147457000Y-86282500I250000J0D01*
G01*
G37*
G36*
G01*
X147457000Y-83307500D02*
X148707000Y-83307500D01*
G75*
G02*
X148957000Y-83557500I0J-250000D01*
G01*
X148957000Y-84482500D01*
G75*
G02*
X148707000Y-84732500I-250000J0D01*
G01*
X147457000Y-84732500D01*
G75*
G02*
X147207000Y-84482500I0J250000D01*
G01*
X147207000Y-83557500D01*
G75*
G02*
X147457000Y-83307500I250000J0D01*
G01*
G37*
%TD*%
%TO.C,C2*%
G36*
G01*
X155720000Y-97826001D02*
X155720000Y-95975999D01*
G75*
G02*
X155969999Y-95726000I249999J0D01*
G01*
X157720001Y-95726000D01*
G75*
G02*
X157970000Y-95975999I0J-249999D01*
G01*
X157970000Y-97826001D01*
G75*
G02*
X157720001Y-98076000I-249999J0D01*
G01*
X155969999Y-98076000D01*
G75*
G02*
X155720000Y-97826001I0J249999D01*
G01*
G37*
G36*
G01*
X150620000Y-97826001D02*
X150620000Y-95975999D01*
G75*
G02*
X150869999Y-95726000I249999J0D01*
G01*
X152620001Y-95726000D01*
G75*
G02*
X152870000Y-95975999I0J-249999D01*
G01*
X152870000Y-97826001D01*
G75*
G02*
X152620001Y-98076000I-249999J0D01*
G01*
X150869999Y-98076000D01*
G75*
G02*
X150620000Y-97826001I0J249999D01*
G01*
G37*
%TD*%
D11*
%TO.C,U1*%
X132560000Y-101575000D03*
X137160000Y-101575000D03*
X134860000Y-101575000D03*
D12*
X134860000Y-95275000D03*
%TD*%
%TO.C,R8*%
G36*
G01*
X139075000Y-97639500D02*
X140325000Y-97639500D01*
G75*
G02*
X140575000Y-97889500I0J-250000D01*
G01*
X140575000Y-98814500D01*
G75*
G02*
X140325000Y-99064500I-250000J0D01*
G01*
X139075000Y-99064500D01*
G75*
G02*
X138825000Y-98814500I0J250000D01*
G01*
X138825000Y-97889500D01*
G75*
G02*
X139075000Y-97639500I250000J0D01*
G01*
G37*
G36*
G01*
X139075000Y-94664500D02*
X140325000Y-94664500D01*
G75*
G02*
X140575000Y-94914500I0J-250000D01*
G01*
X140575000Y-95839500D01*
G75*
G02*
X140325000Y-96089500I-250000J0D01*
G01*
X139075000Y-96089500D01*
G75*
G02*
X138825000Y-95839500I0J250000D01*
G01*
X138825000Y-94914500D01*
G75*
G02*
X139075000Y-94664500I250000J0D01*
G01*
G37*
%TD*%
%TO.C,R7*%
G36*
G01*
X140325000Y-91136500D02*
X139075000Y-91136500D01*
G75*
G02*
X138825000Y-90886500I0J250000D01*
G01*
X138825000Y-89961500D01*
G75*
G02*
X139075000Y-89711500I250000J0D01*
G01*
X140325000Y-89711500D01*
G75*
G02*
X140575000Y-89961500I0J-250000D01*
G01*
X140575000Y-90886500D01*
G75*
G02*
X140325000Y-91136500I-250000J0D01*
G01*
G37*
G36*
G01*
X140325000Y-94111500D02*
X139075000Y-94111500D01*
G75*
G02*
X138825000Y-93861500I0J250000D01*
G01*
X138825000Y-92936500D01*
G75*
G02*
X139075000Y-92686500I250000J0D01*
G01*
X140325000Y-92686500D01*
G75*
G02*
X140575000Y-92936500I0J-250000D01*
G01*
X140575000Y-93861500D01*
G75*
G02*
X140325000Y-94111500I-250000J0D01*
G01*
G37*
%TD*%
%TO.C,R6*%
G36*
G01*
X139075000Y-87679500D02*
X140325000Y-87679500D01*
G75*
G02*
X140575000Y-87929500I0J-250000D01*
G01*
X140575000Y-88854500D01*
G75*
G02*
X140325000Y-89104500I-250000J0D01*
G01*
X139075000Y-89104500D01*
G75*
G02*
X138825000Y-88854500I0J250000D01*
G01*
X138825000Y-87929500D01*
G75*
G02*
X139075000Y-87679500I250000J0D01*
G01*
G37*
G36*
G01*
X139075000Y-84704500D02*
X140325000Y-84704500D01*
G75*
G02*
X140575000Y-84954500I0J-250000D01*
G01*
X140575000Y-85879500D01*
G75*
G02*
X140325000Y-86129500I-250000J0D01*
G01*
X139075000Y-86129500D01*
G75*
G02*
X138825000Y-85879500I0J250000D01*
G01*
X138825000Y-84954500D01*
G75*
G02*
X139075000Y-84704500I250000J0D01*
G01*
G37*
%TD*%
%TO.C,R5*%
G36*
G01*
X140325000Y-81176500D02*
X139075000Y-81176500D01*
G75*
G02*
X138825000Y-80926500I0J250000D01*
G01*
X138825000Y-80001500D01*
G75*
G02*
X139075000Y-79751500I250000J0D01*
G01*
X140325000Y-79751500D01*
G75*
G02*
X140575000Y-80001500I0J-250000D01*
G01*
X140575000Y-80926500D01*
G75*
G02*
X140325000Y-81176500I-250000J0D01*
G01*
G37*
G36*
G01*
X140325000Y-84151500D02*
X139075000Y-84151500D01*
G75*
G02*
X138825000Y-83901500I0J250000D01*
G01*
X138825000Y-82976500D01*
G75*
G02*
X139075000Y-82726500I250000J0D01*
G01*
X140325000Y-82726500D01*
G75*
G02*
X140575000Y-82976500I0J-250000D01*
G01*
X140575000Y-83901500D01*
G75*
G02*
X140325000Y-84151500I-250000J0D01*
G01*
G37*
%TD*%
%TO.C,R4*%
G36*
G01*
X146421000Y-96126000D02*
X145171000Y-96126000D01*
G75*
G02*
X144921000Y-95876000I0J250000D01*
G01*
X144921000Y-94951000D01*
G75*
G02*
X145171000Y-94701000I250000J0D01*
G01*
X146421000Y-94701000D01*
G75*
G02*
X146671000Y-94951000I0J-250000D01*
G01*
X146671000Y-95876000D01*
G75*
G02*
X146421000Y-96126000I-250000J0D01*
G01*
G37*
G36*
G01*
X146421000Y-99101000D02*
X145171000Y-99101000D01*
G75*
G02*
X144921000Y-98851000I0J250000D01*
G01*
X144921000Y-97926000D01*
G75*
G02*
X145171000Y-97676000I250000J0D01*
G01*
X146421000Y-97676000D01*
G75*
G02*
X146671000Y-97926000I0J-250000D01*
G01*
X146671000Y-98851000D01*
G75*
G02*
X146421000Y-99101000I-250000J0D01*
G01*
G37*
%TD*%
%TO.C,R3*%
G36*
G01*
X146421000Y-91136500D02*
X145171000Y-91136500D01*
G75*
G02*
X144921000Y-90886500I0J250000D01*
G01*
X144921000Y-89961500D01*
G75*
G02*
X145171000Y-89711500I250000J0D01*
G01*
X146421000Y-89711500D01*
G75*
G02*
X146671000Y-89961500I0J-250000D01*
G01*
X146671000Y-90886500D01*
G75*
G02*
X146421000Y-91136500I-250000J0D01*
G01*
G37*
G36*
G01*
X146421000Y-94111500D02*
X145171000Y-94111500D01*
G75*
G02*
X144921000Y-93861500I0J250000D01*
G01*
X144921000Y-92936500D01*
G75*
G02*
X145171000Y-92686500I250000J0D01*
G01*
X146421000Y-92686500D01*
G75*
G02*
X146671000Y-92936500I0J-250000D01*
G01*
X146671000Y-93861500D01*
G75*
G02*
X146421000Y-94111500I-250000J0D01*
G01*
G37*
%TD*%
%TO.C,R2*%
G36*
G01*
X146421000Y-86129500D02*
X145171000Y-86129500D01*
G75*
G02*
X144921000Y-85879500I0J250000D01*
G01*
X144921000Y-84954500D01*
G75*
G02*
X145171000Y-84704500I250000J0D01*
G01*
X146421000Y-84704500D01*
G75*
G02*
X146671000Y-84954500I0J-250000D01*
G01*
X146671000Y-85879500D01*
G75*
G02*
X146421000Y-86129500I-250000J0D01*
G01*
G37*
G36*
G01*
X146421000Y-89104500D02*
X145171000Y-89104500D01*
G75*
G02*
X144921000Y-88854500I0J250000D01*
G01*
X144921000Y-87929500D01*
G75*
G02*
X145171000Y-87679500I250000J0D01*
G01*
X146421000Y-87679500D01*
G75*
G02*
X146671000Y-87929500I0J-250000D01*
G01*
X146671000Y-88854500D01*
G75*
G02*
X146421000Y-89104500I-250000J0D01*
G01*
G37*
%TD*%
%TO.C,R1*%
G36*
G01*
X146421000Y-81176500D02*
X145171000Y-81176500D01*
G75*
G02*
X144921000Y-80926500I0J250000D01*
G01*
X144921000Y-80001500D01*
G75*
G02*
X145171000Y-79751500I250000J0D01*
G01*
X146421000Y-79751500D01*
G75*
G02*
X146671000Y-80001500I0J-250000D01*
G01*
X146671000Y-80926500D01*
G75*
G02*
X146421000Y-81176500I-250000J0D01*
G01*
G37*
G36*
G01*
X146421000Y-84151500D02*
X145171000Y-84151500D01*
G75*
G02*
X144921000Y-83901500I0J250000D01*
G01*
X144921000Y-82976500D01*
G75*
G02*
X145171000Y-82726500I250000J0D01*
G01*
X146421000Y-82726500D01*
G75*
G02*
X146671000Y-82976500I0J-250000D01*
G01*
X146671000Y-83901500D01*
G75*
G02*
X146421000Y-84151500I-250000J0D01*
G01*
G37*
%TD*%
D13*
%TO.C,Q4*%
X141748000Y-96837500D03*
X143748000Y-95887500D03*
X143748000Y-97787500D03*
%TD*%
%TO.C,Q3*%
X141764000Y-91882000D03*
X143764000Y-90932000D03*
X143764000Y-92832000D03*
%TD*%
%TO.C,Q2*%
X141764000Y-86934000D03*
X143764000Y-85984000D03*
X143764000Y-87884000D03*
%TD*%
%TO.C,Q1*%
X141748000Y-81981000D03*
X143748000Y-81031000D03*
X143748000Y-82931000D03*
%TD*%
%TO.C,C1*%
G36*
G01*
X135151500Y-82687000D02*
X135151500Y-83937000D01*
G75*
G02*
X134901500Y-84187000I-250000J0D01*
G01*
X133976500Y-84187000D01*
G75*
G02*
X133726500Y-83937000I0J250000D01*
G01*
X133726500Y-82687000D01*
G75*
G02*
X133976500Y-82437000I250000J0D01*
G01*
X134901500Y-82437000D01*
G75*
G02*
X135151500Y-82687000I0J-250000D01*
G01*
G37*
G36*
G01*
X138126500Y-82687000D02*
X138126500Y-83937000D01*
G75*
G02*
X137876500Y-84187000I-250000J0D01*
G01*
X136951500Y-84187000D01*
G75*
G02*
X136701500Y-83937000I0J250000D01*
G01*
X136701500Y-82687000D01*
G75*
G02*
X136951500Y-82437000I250000J0D01*
G01*
X137876500Y-82437000D01*
G75*
G02*
X138126500Y-82687000I0J-250000D01*
G01*
G37*
%TD*%
M02*
