%TF.GenerationSoftware,KiCad,Pcbnew,(5.1.6)-1*%
%TF.CreationDate,2020-06-05T20:50:24+02:00*%
%TF.ProjectId,TinyISPLevelShifter,54696e79-4953-4504-9c65-76656c536869,rev?*%
%TF.SameCoordinates,Original*%
%TF.FileFunction,Copper,L1,Top*%
%TF.FilePolarity,Positive*%
%FSLAX46Y46*%
G04 Gerber Fmt 4.6, Leading zero omitted, Abs format (unit mm)*
G04 Created by KiCad (PCBNEW (5.1.6)-1) date 2020-06-05 20:50:24*
%MOMM*%
%LPD*%
G01*
G04 APERTURE LIST*
%TA.AperFunction,SMDPad,CuDef*%
%ADD10R,3.150000X1.000000*%
%TD*%
%TA.AperFunction,SMDPad,CuDef*%
%ADD11R,1.500000X2.000000*%
%TD*%
%TA.AperFunction,SMDPad,CuDef*%
%ADD12R,3.800000X2.000000*%
%TD*%
%TA.AperFunction,SMDPad,CuDef*%
%ADD13R,0.900000X0.800000*%
%TD*%
%TA.AperFunction,Conductor*%
%ADD14C,0.500000*%
%TD*%
%TA.AperFunction,Conductor*%
%ADD15C,0.350000*%
%TD*%
%TA.AperFunction,Conductor*%
%ADD16C,0.254000*%
%TD*%
G04 APERTURE END LIST*
D10*
%TO.P,J2,6*%
%TO.N,GND*%
X135763000Y-91948000D03*
%TO.P,J2,5*%
%TO.N,/RST_HV*%
X130713000Y-91948000D03*
%TO.P,J2,4*%
%TO.N,/MOSI_HV*%
X135763000Y-89408000D03*
%TO.P,J2,3*%
%TO.N,/SCK_HV*%
X130713000Y-89408000D03*
%TO.P,J2,2*%
%TO.N,+5V*%
X135763000Y-86868000D03*
%TO.P,J2,1*%
%TO.N,/MISO_HV*%
X130713000Y-86868000D03*
%TD*%
%TO.P,J1,6*%
%TO.N,GND*%
X157069000Y-91948000D03*
%TO.P,J1,5*%
%TO.N,/RST_LV*%
X152019000Y-91948000D03*
%TO.P,J1,4*%
%TO.N,/MOSI_LV*%
X157069000Y-89408000D03*
%TO.P,J1,3*%
%TO.N,/SCK_LV*%
X152019000Y-89408000D03*
%TO.P,J1,2*%
%TO.N,+3V3*%
X157069000Y-86868000D03*
%TO.P,J1,1*%
%TO.N,/MISO_LV*%
X152019000Y-86868000D03*
%TD*%
%TO.P,R11,2*%
%TO.N,+3V3*%
%TA.AperFunction,SMDPad,CuDef*%
G36*
G01*
X147457000Y-96188500D02*
X148707000Y-96188500D01*
G75*
G02*
X148957000Y-96438500I0J-250000D01*
G01*
X148957000Y-97363500D01*
G75*
G02*
X148707000Y-97613500I-250000J0D01*
G01*
X147457000Y-97613500D01*
G75*
G02*
X147207000Y-97363500I0J250000D01*
G01*
X147207000Y-96438500D01*
G75*
G02*
X147457000Y-96188500I250000J0D01*
G01*
G37*
%TD.AperFunction*%
%TO.P,R11,1*%
%TA.AperFunction,SMDPad,CuDef*%
G36*
G01*
X147457000Y-93213500D02*
X148707000Y-93213500D01*
G75*
G02*
X148957000Y-93463500I0J-250000D01*
G01*
X148957000Y-94388500D01*
G75*
G02*
X148707000Y-94638500I-250000J0D01*
G01*
X147457000Y-94638500D01*
G75*
G02*
X147207000Y-94388500I0J250000D01*
G01*
X147207000Y-93463500D01*
G75*
G02*
X147457000Y-93213500I250000J0D01*
G01*
G37*
%TD.AperFunction*%
%TD*%
%TO.P,R10,2*%
%TO.N,+3V3*%
%TA.AperFunction,SMDPad,CuDef*%
G36*
G01*
X147457000Y-91235500D02*
X148707000Y-91235500D01*
G75*
G02*
X148957000Y-91485500I0J-250000D01*
G01*
X148957000Y-92410500D01*
G75*
G02*
X148707000Y-92660500I-250000J0D01*
G01*
X147457000Y-92660500D01*
G75*
G02*
X147207000Y-92410500I0J250000D01*
G01*
X147207000Y-91485500D01*
G75*
G02*
X147457000Y-91235500I250000J0D01*
G01*
G37*
%TD.AperFunction*%
%TO.P,R10,1*%
%TA.AperFunction,SMDPad,CuDef*%
G36*
G01*
X147457000Y-88260500D02*
X148707000Y-88260500D01*
G75*
G02*
X148957000Y-88510500I0J-250000D01*
G01*
X148957000Y-89435500D01*
G75*
G02*
X148707000Y-89685500I-250000J0D01*
G01*
X147457000Y-89685500D01*
G75*
G02*
X147207000Y-89435500I0J250000D01*
G01*
X147207000Y-88510500D01*
G75*
G02*
X147457000Y-88260500I250000J0D01*
G01*
G37*
%TD.AperFunction*%
%TD*%
%TO.P,R9,2*%
%TO.N,+3V3*%
%TA.AperFunction,SMDPad,CuDef*%
G36*
G01*
X147457000Y-86282500D02*
X148707000Y-86282500D01*
G75*
G02*
X148957000Y-86532500I0J-250000D01*
G01*
X148957000Y-87457500D01*
G75*
G02*
X148707000Y-87707500I-250000J0D01*
G01*
X147457000Y-87707500D01*
G75*
G02*
X147207000Y-87457500I0J250000D01*
G01*
X147207000Y-86532500D01*
G75*
G02*
X147457000Y-86282500I250000J0D01*
G01*
G37*
%TD.AperFunction*%
%TO.P,R9,1*%
%TA.AperFunction,SMDPad,CuDef*%
G36*
G01*
X147457000Y-83307500D02*
X148707000Y-83307500D01*
G75*
G02*
X148957000Y-83557500I0J-250000D01*
G01*
X148957000Y-84482500D01*
G75*
G02*
X148707000Y-84732500I-250000J0D01*
G01*
X147457000Y-84732500D01*
G75*
G02*
X147207000Y-84482500I0J250000D01*
G01*
X147207000Y-83557500D01*
G75*
G02*
X147457000Y-83307500I250000J0D01*
G01*
G37*
%TD.AperFunction*%
%TD*%
%TO.P,C2,2*%
%TO.N,GND*%
%TA.AperFunction,SMDPad,CuDef*%
G36*
G01*
X155720000Y-97826001D02*
X155720000Y-95975999D01*
G75*
G02*
X155969999Y-95726000I249999J0D01*
G01*
X157720001Y-95726000D01*
G75*
G02*
X157970000Y-95975999I0J-249999D01*
G01*
X157970000Y-97826001D01*
G75*
G02*
X157720001Y-98076000I-249999J0D01*
G01*
X155969999Y-98076000D01*
G75*
G02*
X155720000Y-97826001I0J249999D01*
G01*
G37*
%TD.AperFunction*%
%TO.P,C2,1*%
%TO.N,+3V3*%
%TA.AperFunction,SMDPad,CuDef*%
G36*
G01*
X150620000Y-97826001D02*
X150620000Y-95975999D01*
G75*
G02*
X150869999Y-95726000I249999J0D01*
G01*
X152620001Y-95726000D01*
G75*
G02*
X152870000Y-95975999I0J-249999D01*
G01*
X152870000Y-97826001D01*
G75*
G02*
X152620001Y-98076000I-249999J0D01*
G01*
X150869999Y-98076000D01*
G75*
G02*
X150620000Y-97826001I0J249999D01*
G01*
G37*
%TD.AperFunction*%
%TD*%
D11*
%TO.P,U1,1*%
%TO.N,GND*%
X132560000Y-101575000D03*
%TO.P,U1,3*%
%TO.N,+5V*%
X137160000Y-101575000D03*
%TO.P,U1,2*%
%TO.N,+3V3*%
X134860000Y-101575000D03*
D12*
X134860000Y-95275000D03*
%TD*%
%TO.P,R8,2*%
%TO.N,/RST_HV*%
%TA.AperFunction,SMDPad,CuDef*%
G36*
G01*
X139075000Y-97639500D02*
X140325000Y-97639500D01*
G75*
G02*
X140575000Y-97889500I0J-250000D01*
G01*
X140575000Y-98814500D01*
G75*
G02*
X140325000Y-99064500I-250000J0D01*
G01*
X139075000Y-99064500D01*
G75*
G02*
X138825000Y-98814500I0J250000D01*
G01*
X138825000Y-97889500D01*
G75*
G02*
X139075000Y-97639500I250000J0D01*
G01*
G37*
%TD.AperFunction*%
%TO.P,R8,1*%
%TO.N,+5V*%
%TA.AperFunction,SMDPad,CuDef*%
G36*
G01*
X139075000Y-94664500D02*
X140325000Y-94664500D01*
G75*
G02*
X140575000Y-94914500I0J-250000D01*
G01*
X140575000Y-95839500D01*
G75*
G02*
X140325000Y-96089500I-250000J0D01*
G01*
X139075000Y-96089500D01*
G75*
G02*
X138825000Y-95839500I0J250000D01*
G01*
X138825000Y-94914500D01*
G75*
G02*
X139075000Y-94664500I250000J0D01*
G01*
G37*
%TD.AperFunction*%
%TD*%
%TO.P,R7,2*%
%TO.N,/MOSI_HV*%
%TA.AperFunction,SMDPad,CuDef*%
G36*
G01*
X140325000Y-91136500D02*
X139075000Y-91136500D01*
G75*
G02*
X138825000Y-90886500I0J250000D01*
G01*
X138825000Y-89961500D01*
G75*
G02*
X139075000Y-89711500I250000J0D01*
G01*
X140325000Y-89711500D01*
G75*
G02*
X140575000Y-89961500I0J-250000D01*
G01*
X140575000Y-90886500D01*
G75*
G02*
X140325000Y-91136500I-250000J0D01*
G01*
G37*
%TD.AperFunction*%
%TO.P,R7,1*%
%TO.N,+5V*%
%TA.AperFunction,SMDPad,CuDef*%
G36*
G01*
X140325000Y-94111500D02*
X139075000Y-94111500D01*
G75*
G02*
X138825000Y-93861500I0J250000D01*
G01*
X138825000Y-92936500D01*
G75*
G02*
X139075000Y-92686500I250000J0D01*
G01*
X140325000Y-92686500D01*
G75*
G02*
X140575000Y-92936500I0J-250000D01*
G01*
X140575000Y-93861500D01*
G75*
G02*
X140325000Y-94111500I-250000J0D01*
G01*
G37*
%TD.AperFunction*%
%TD*%
%TO.P,R6,2*%
%TO.N,/SCK_HV*%
%TA.AperFunction,SMDPad,CuDef*%
G36*
G01*
X139075000Y-87679500D02*
X140325000Y-87679500D01*
G75*
G02*
X140575000Y-87929500I0J-250000D01*
G01*
X140575000Y-88854500D01*
G75*
G02*
X140325000Y-89104500I-250000J0D01*
G01*
X139075000Y-89104500D01*
G75*
G02*
X138825000Y-88854500I0J250000D01*
G01*
X138825000Y-87929500D01*
G75*
G02*
X139075000Y-87679500I250000J0D01*
G01*
G37*
%TD.AperFunction*%
%TO.P,R6,1*%
%TO.N,+5V*%
%TA.AperFunction,SMDPad,CuDef*%
G36*
G01*
X139075000Y-84704500D02*
X140325000Y-84704500D01*
G75*
G02*
X140575000Y-84954500I0J-250000D01*
G01*
X140575000Y-85879500D01*
G75*
G02*
X140325000Y-86129500I-250000J0D01*
G01*
X139075000Y-86129500D01*
G75*
G02*
X138825000Y-85879500I0J250000D01*
G01*
X138825000Y-84954500D01*
G75*
G02*
X139075000Y-84704500I250000J0D01*
G01*
G37*
%TD.AperFunction*%
%TD*%
%TO.P,R5,2*%
%TO.N,/MISO_HV*%
%TA.AperFunction,SMDPad,CuDef*%
G36*
G01*
X140325000Y-81176500D02*
X139075000Y-81176500D01*
G75*
G02*
X138825000Y-80926500I0J250000D01*
G01*
X138825000Y-80001500D01*
G75*
G02*
X139075000Y-79751500I250000J0D01*
G01*
X140325000Y-79751500D01*
G75*
G02*
X140575000Y-80001500I0J-250000D01*
G01*
X140575000Y-80926500D01*
G75*
G02*
X140325000Y-81176500I-250000J0D01*
G01*
G37*
%TD.AperFunction*%
%TO.P,R5,1*%
%TO.N,+5V*%
%TA.AperFunction,SMDPad,CuDef*%
G36*
G01*
X140325000Y-84151500D02*
X139075000Y-84151500D01*
G75*
G02*
X138825000Y-83901500I0J250000D01*
G01*
X138825000Y-82976500D01*
G75*
G02*
X139075000Y-82726500I250000J0D01*
G01*
X140325000Y-82726500D01*
G75*
G02*
X140575000Y-82976500I0J-250000D01*
G01*
X140575000Y-83901500D01*
G75*
G02*
X140325000Y-84151500I-250000J0D01*
G01*
G37*
%TD.AperFunction*%
%TD*%
%TO.P,R4,2*%
%TO.N,/RST_LV*%
%TA.AperFunction,SMDPad,CuDef*%
G36*
G01*
X146421000Y-96126000D02*
X145171000Y-96126000D01*
G75*
G02*
X144921000Y-95876000I0J250000D01*
G01*
X144921000Y-94951000D01*
G75*
G02*
X145171000Y-94701000I250000J0D01*
G01*
X146421000Y-94701000D01*
G75*
G02*
X146671000Y-94951000I0J-250000D01*
G01*
X146671000Y-95876000D01*
G75*
G02*
X146421000Y-96126000I-250000J0D01*
G01*
G37*
%TD.AperFunction*%
%TO.P,R4,1*%
%TO.N,+3V3*%
%TA.AperFunction,SMDPad,CuDef*%
G36*
G01*
X146421000Y-99101000D02*
X145171000Y-99101000D01*
G75*
G02*
X144921000Y-98851000I0J250000D01*
G01*
X144921000Y-97926000D01*
G75*
G02*
X145171000Y-97676000I250000J0D01*
G01*
X146421000Y-97676000D01*
G75*
G02*
X146671000Y-97926000I0J-250000D01*
G01*
X146671000Y-98851000D01*
G75*
G02*
X146421000Y-99101000I-250000J0D01*
G01*
G37*
%TD.AperFunction*%
%TD*%
%TO.P,R3,2*%
%TO.N,/MOSI_LV*%
%TA.AperFunction,SMDPad,CuDef*%
G36*
G01*
X146421000Y-91136500D02*
X145171000Y-91136500D01*
G75*
G02*
X144921000Y-90886500I0J250000D01*
G01*
X144921000Y-89961500D01*
G75*
G02*
X145171000Y-89711500I250000J0D01*
G01*
X146421000Y-89711500D01*
G75*
G02*
X146671000Y-89961500I0J-250000D01*
G01*
X146671000Y-90886500D01*
G75*
G02*
X146421000Y-91136500I-250000J0D01*
G01*
G37*
%TD.AperFunction*%
%TO.P,R3,1*%
%TO.N,+3V3*%
%TA.AperFunction,SMDPad,CuDef*%
G36*
G01*
X146421000Y-94111500D02*
X145171000Y-94111500D01*
G75*
G02*
X144921000Y-93861500I0J250000D01*
G01*
X144921000Y-92936500D01*
G75*
G02*
X145171000Y-92686500I250000J0D01*
G01*
X146421000Y-92686500D01*
G75*
G02*
X146671000Y-92936500I0J-250000D01*
G01*
X146671000Y-93861500D01*
G75*
G02*
X146421000Y-94111500I-250000J0D01*
G01*
G37*
%TD.AperFunction*%
%TD*%
%TO.P,R2,2*%
%TO.N,/SCK_LV*%
%TA.AperFunction,SMDPad,CuDef*%
G36*
G01*
X146421000Y-86129500D02*
X145171000Y-86129500D01*
G75*
G02*
X144921000Y-85879500I0J250000D01*
G01*
X144921000Y-84954500D01*
G75*
G02*
X145171000Y-84704500I250000J0D01*
G01*
X146421000Y-84704500D01*
G75*
G02*
X146671000Y-84954500I0J-250000D01*
G01*
X146671000Y-85879500D01*
G75*
G02*
X146421000Y-86129500I-250000J0D01*
G01*
G37*
%TD.AperFunction*%
%TO.P,R2,1*%
%TO.N,+3V3*%
%TA.AperFunction,SMDPad,CuDef*%
G36*
G01*
X146421000Y-89104500D02*
X145171000Y-89104500D01*
G75*
G02*
X144921000Y-88854500I0J250000D01*
G01*
X144921000Y-87929500D01*
G75*
G02*
X145171000Y-87679500I250000J0D01*
G01*
X146421000Y-87679500D01*
G75*
G02*
X146671000Y-87929500I0J-250000D01*
G01*
X146671000Y-88854500D01*
G75*
G02*
X146421000Y-89104500I-250000J0D01*
G01*
G37*
%TD.AperFunction*%
%TD*%
%TO.P,R1,2*%
%TO.N,/MISO_LV*%
%TA.AperFunction,SMDPad,CuDef*%
G36*
G01*
X146421000Y-81176500D02*
X145171000Y-81176500D01*
G75*
G02*
X144921000Y-80926500I0J250000D01*
G01*
X144921000Y-80001500D01*
G75*
G02*
X145171000Y-79751500I250000J0D01*
G01*
X146421000Y-79751500D01*
G75*
G02*
X146671000Y-80001500I0J-250000D01*
G01*
X146671000Y-80926500D01*
G75*
G02*
X146421000Y-81176500I-250000J0D01*
G01*
G37*
%TD.AperFunction*%
%TO.P,R1,1*%
%TO.N,+3V3*%
%TA.AperFunction,SMDPad,CuDef*%
G36*
G01*
X146421000Y-84151500D02*
X145171000Y-84151500D01*
G75*
G02*
X144921000Y-83901500I0J250000D01*
G01*
X144921000Y-82976500D01*
G75*
G02*
X145171000Y-82726500I250000J0D01*
G01*
X146421000Y-82726500D01*
G75*
G02*
X146671000Y-82976500I0J-250000D01*
G01*
X146671000Y-83901500D01*
G75*
G02*
X146421000Y-84151500I-250000J0D01*
G01*
G37*
%TD.AperFunction*%
%TD*%
D13*
%TO.P,Q4,3*%
%TO.N,/RST_HV*%
X141748000Y-96837500D03*
%TO.P,Q4,2*%
%TO.N,/RST_LV*%
X143748000Y-95887500D03*
%TO.P,Q4,1*%
%TO.N,+3V3*%
X143748000Y-97787500D03*
%TD*%
%TO.P,Q3,3*%
%TO.N,/MOSI_HV*%
X141764000Y-91882000D03*
%TO.P,Q3,2*%
%TO.N,/MOSI_LV*%
X143764000Y-90932000D03*
%TO.P,Q3,1*%
%TO.N,+3V3*%
X143764000Y-92832000D03*
%TD*%
%TO.P,Q2,3*%
%TO.N,/SCK_HV*%
X141764000Y-86934000D03*
%TO.P,Q2,2*%
%TO.N,/SCK_LV*%
X143764000Y-85984000D03*
%TO.P,Q2,1*%
%TO.N,+3V3*%
X143764000Y-87884000D03*
%TD*%
%TO.P,Q1,3*%
%TO.N,/MISO_HV*%
X141748000Y-81981000D03*
%TO.P,Q1,2*%
%TO.N,/MISO_LV*%
X143748000Y-81031000D03*
%TO.P,Q1,1*%
%TO.N,+3V3*%
X143748000Y-82931000D03*
%TD*%
%TO.P,C1,2*%
%TO.N,GND*%
%TA.AperFunction,SMDPad,CuDef*%
G36*
G01*
X135151500Y-82687000D02*
X135151500Y-83937000D01*
G75*
G02*
X134901500Y-84187000I-250000J0D01*
G01*
X133976500Y-84187000D01*
G75*
G02*
X133726500Y-83937000I0J250000D01*
G01*
X133726500Y-82687000D01*
G75*
G02*
X133976500Y-82437000I250000J0D01*
G01*
X134901500Y-82437000D01*
G75*
G02*
X135151500Y-82687000I0J-250000D01*
G01*
G37*
%TD.AperFunction*%
%TO.P,C1,1*%
%TO.N,+5V*%
%TA.AperFunction,SMDPad,CuDef*%
G36*
G01*
X138126500Y-82687000D02*
X138126500Y-83937000D01*
G75*
G02*
X137876500Y-84187000I-250000J0D01*
G01*
X136951500Y-84187000D01*
G75*
G02*
X136701500Y-83937000I0J250000D01*
G01*
X136701500Y-82687000D01*
G75*
G02*
X136951500Y-82437000I250000J0D01*
G01*
X137876500Y-82437000D01*
G75*
G02*
X138126500Y-82687000I0J-250000D01*
G01*
G37*
%TD.AperFunction*%
%TD*%
D14*
%TO.N,+3V3*%
X144349000Y-98388500D02*
X143748000Y-97787500D01*
X145796000Y-98388500D02*
X144349000Y-98388500D01*
X144331000Y-93399000D02*
X143764000Y-92832000D01*
X145796000Y-93399000D02*
X144331000Y-93399000D01*
X144272000Y-88392000D02*
X143764000Y-87884000D01*
X145796000Y-88392000D02*
X144272000Y-88392000D01*
X144256000Y-83439000D02*
X143748000Y-82931000D01*
X145796000Y-83439000D02*
X144256000Y-83439000D01*
X134860000Y-95275000D02*
X134860000Y-101575000D01*
X148082000Y-86995000D02*
X148082000Y-88973000D01*
X148082000Y-91948000D02*
X148082000Y-93926000D01*
X145796000Y-98388500D02*
X147737500Y-98388500D01*
X148082000Y-98044000D02*
X148082000Y-96901000D01*
X147737500Y-98388500D02*
X148082000Y-98044000D01*
X148082000Y-93926000D02*
X147393000Y-93926000D01*
X147555000Y-93399000D02*
X148082000Y-93926000D01*
X145796000Y-93399000D02*
X147555000Y-93399000D01*
X147501000Y-88392000D02*
X148082000Y-88973000D01*
X145796000Y-88392000D02*
X147501000Y-88392000D01*
X147501000Y-83439000D02*
X148082000Y-84020000D01*
X145796000Y-83439000D02*
X147501000Y-83439000D01*
X148082000Y-96901000D02*
X151745000Y-96901000D01*
X134860000Y-102983000D02*
X134860000Y-101575000D01*
X145796000Y-99949000D02*
X144145000Y-101600000D01*
X145796000Y-98388500D02*
X145796000Y-99949000D01*
X138557000Y-103251000D02*
X135128000Y-103251000D01*
X144145000Y-101600000D02*
X140208000Y-101600000D01*
X140208000Y-101600000D02*
X138557000Y-103251000D01*
X135128000Y-103251000D02*
X134860000Y-102983000D01*
X151745000Y-94635000D02*
X151745000Y-96901000D01*
X152527000Y-93853000D02*
X151745000Y-94635000D01*
X154559000Y-91313000D02*
X154559000Y-93472000D01*
X159131000Y-86868000D02*
X159512000Y-87249000D01*
X154178000Y-93853000D02*
X152527000Y-93853000D01*
X159512000Y-89916000D02*
X158750000Y-90678000D01*
X158750000Y-90678000D02*
X155194000Y-90678000D01*
X154559000Y-93472000D02*
X154178000Y-93853000D01*
X157069000Y-86868000D02*
X159131000Y-86868000D01*
X159512000Y-87249000D02*
X159512000Y-89916000D01*
X155194000Y-90678000D02*
X154559000Y-91313000D01*
%TO.N,+5V*%
X139700000Y-95377000D02*
X139700000Y-93399000D01*
X139700000Y-83439000D02*
X139700000Y-85417000D01*
X138249000Y-86868000D02*
X139700000Y-85417000D01*
X135763000Y-86868000D02*
X138249000Y-86868000D01*
X141907002Y-85417000D02*
X142748000Y-86257998D01*
X139700000Y-85417000D02*
X141907002Y-85417000D01*
X142748000Y-92558002D02*
X141907002Y-93399000D01*
X141907002Y-93399000D02*
X139700000Y-93399000D01*
X142748000Y-86257998D02*
X142748000Y-92558002D01*
X138405000Y-100330000D02*
X137160000Y-101575000D01*
X140716000Y-100330000D02*
X138405000Y-100330000D01*
X141947502Y-95377000D02*
X139700000Y-95377000D01*
X142748000Y-96177498D02*
X141947502Y-95377000D01*
X140716000Y-100330000D02*
X142748000Y-98298000D01*
X142748000Y-98298000D02*
X142748000Y-96177498D01*
X137541000Y-83439000D02*
X137414000Y-83312000D01*
X139700000Y-83439000D02*
X137541000Y-83439000D01*
%TO.N,GND*%
X131826000Y-94869000D02*
X131826000Y-99060000D01*
X131191000Y-94234000D02*
X131826000Y-94869000D01*
X132560000Y-99794000D02*
X132560000Y-101575000D01*
X134620000Y-91948000D02*
X133350000Y-90678000D01*
X128651000Y-90678000D02*
X128397000Y-90932000D01*
X128397000Y-90932000D02*
X128397000Y-93091000D01*
X133350000Y-90678000D02*
X128651000Y-90678000D01*
X131826000Y-99060000D02*
X132560000Y-99794000D01*
X129540000Y-94234000D02*
X131191000Y-94234000D01*
X135763000Y-91948000D02*
X134620000Y-91948000D01*
X128397000Y-93091000D02*
X129540000Y-94234000D01*
D15*
%TO.N,/RST_LV*%
X144222000Y-95413500D02*
X143748000Y-95887500D01*
X145796000Y-95413500D02*
X144222000Y-95413500D01*
X145796000Y-95413500D02*
X149315500Y-95413500D01*
X149315500Y-95413500D02*
X149733000Y-94996000D01*
X149733000Y-94996000D02*
X149733000Y-92202000D01*
X149987000Y-91948000D02*
X152019000Y-91948000D01*
X149733000Y-92202000D02*
X149987000Y-91948000D01*
%TO.N,/MOSI_LV*%
X144272000Y-90424000D02*
X143764000Y-90932000D01*
X145796000Y-90424000D02*
X144272000Y-90424000D01*
X145796000Y-90424000D02*
X149352000Y-90424000D01*
X149352000Y-90424000D02*
X149606000Y-90678000D01*
X149606000Y-90678000D02*
X153924000Y-90678000D01*
X155194000Y-89408000D02*
X157069000Y-89408000D01*
X153924000Y-90678000D02*
X155194000Y-89408000D01*
%TO.N,/SCK_LV*%
X144331000Y-85417000D02*
X143764000Y-85984000D01*
X145796000Y-85417000D02*
X144331000Y-85417000D01*
X145796000Y-85417000D02*
X149171000Y-85417000D01*
X149171000Y-85417000D02*
X149733000Y-85979000D01*
X150094000Y-89408000D02*
X152019000Y-89408000D01*
X149733000Y-89047000D02*
X150094000Y-89408000D01*
X149733000Y-85979000D02*
X149733000Y-89047000D01*
%TO.N,/MISO_LV*%
X144315000Y-80464000D02*
X143748000Y-81031000D01*
X145796000Y-80464000D02*
X144315000Y-80464000D01*
X149860000Y-84836000D02*
X150622000Y-85598000D01*
X150622000Y-85598000D02*
X151765000Y-85598000D01*
X152019000Y-85852000D02*
X152019000Y-86868000D01*
X151765000Y-85598000D02*
X152019000Y-85852000D01*
X145796000Y-80464000D02*
X145796000Y-81534000D01*
X145796000Y-81534000D02*
X146177000Y-81915000D01*
X146177000Y-81915000D02*
X148971000Y-81915000D01*
X149860000Y-82804000D02*
X149860000Y-84836000D01*
X148971000Y-81915000D02*
X149860000Y-82804000D01*
%TO.N,/RST_HV*%
X140233500Y-98352000D02*
X141748000Y-96837500D01*
X139700000Y-98352000D02*
X140233500Y-98352000D01*
X130713000Y-91948000D02*
X131983000Y-93218000D01*
X131983000Y-93218000D02*
X137160000Y-93218000D01*
X137160000Y-93218000D02*
X137795000Y-93853000D01*
X137795000Y-93853000D02*
X137795000Y-97282000D01*
X138865000Y-98352000D02*
X139700000Y-98352000D01*
X137795000Y-97282000D02*
X138865000Y-98352000D01*
%TO.N,/MOSI_HV*%
X140306000Y-90424000D02*
X141764000Y-91882000D01*
X139700000Y-90424000D02*
X140306000Y-90424000D01*
X135763000Y-89408000D02*
X137160000Y-89408000D01*
X138176000Y-90424000D02*
X139700000Y-90424000D01*
X137160000Y-89408000D02*
X138176000Y-90424000D01*
%TO.N,/SCK_HV*%
X140306000Y-88392000D02*
X141764000Y-86934000D01*
X139700000Y-88392000D02*
X140306000Y-88392000D01*
X130713000Y-89408000D02*
X132334000Y-89408000D01*
X132334000Y-89408000D02*
X133604000Y-88138000D01*
X133604000Y-88138000D02*
X137922000Y-88138000D01*
X138176000Y-88392000D02*
X139700000Y-88392000D01*
X137922000Y-88138000D02*
X138176000Y-88392000D01*
%TO.N,/MISO_HV*%
X140231000Y-80464000D02*
X141748000Y-81981000D01*
X139700000Y-80464000D02*
X140231000Y-80464000D01*
X130713000Y-86868000D02*
X131953000Y-86868000D01*
X139700000Y-80464000D02*
X137468000Y-80464000D01*
X137468000Y-80464000D02*
X135890000Y-82042000D01*
X135890000Y-82042000D02*
X135890000Y-84582000D01*
X135890000Y-84582000D02*
X135509000Y-84963000D01*
X132618000Y-84963000D02*
X130713000Y-86868000D01*
X135509000Y-84963000D02*
X132618000Y-84963000D01*
%TD*%
D16*
%TO.N,GND*%
G36*
X159893000Y-86378422D02*
G01*
X159787532Y-86272954D01*
X159759817Y-86239183D01*
X159625059Y-86128589D01*
X159471313Y-86046411D01*
X159304490Y-85995805D01*
X159174477Y-85983000D01*
X159174469Y-85983000D01*
X159147306Y-85980325D01*
X159095185Y-85916815D01*
X158998494Y-85837463D01*
X158888180Y-85778498D01*
X158768482Y-85742188D01*
X158644000Y-85729928D01*
X155494000Y-85729928D01*
X155369518Y-85742188D01*
X155249820Y-85778498D01*
X155139506Y-85837463D01*
X155042815Y-85916815D01*
X154963463Y-86013506D01*
X154904498Y-86123820D01*
X154868188Y-86243518D01*
X154855928Y-86368000D01*
X154855928Y-87368000D01*
X154868188Y-87492482D01*
X154904498Y-87612180D01*
X154963463Y-87722494D01*
X155042815Y-87819185D01*
X155139506Y-87898537D01*
X155249820Y-87957502D01*
X155369518Y-87993812D01*
X155494000Y-88006072D01*
X158627000Y-88006072D01*
X158627000Y-88269928D01*
X155494000Y-88269928D01*
X155369518Y-88282188D01*
X155249820Y-88318498D01*
X155139506Y-88377463D01*
X155042815Y-88456815D01*
X154963463Y-88553506D01*
X154913715Y-88646576D01*
X154882527Y-88656037D01*
X154832794Y-88682620D01*
X154741810Y-88731251D01*
X154686210Y-88776881D01*
X154618472Y-88832472D01*
X154593107Y-88863380D01*
X154232072Y-89224415D01*
X154232072Y-88908000D01*
X154219812Y-88783518D01*
X154183502Y-88663820D01*
X154124537Y-88553506D01*
X154045185Y-88456815D01*
X153948494Y-88377463D01*
X153838180Y-88318498D01*
X153718482Y-88282188D01*
X153594000Y-88269928D01*
X150543000Y-88269928D01*
X150543000Y-88006072D01*
X153594000Y-88006072D01*
X153718482Y-87993812D01*
X153838180Y-87957502D01*
X153948494Y-87898537D01*
X154045185Y-87819185D01*
X154124537Y-87722494D01*
X154183502Y-87612180D01*
X154219812Y-87492482D01*
X154232072Y-87368000D01*
X154232072Y-86368000D01*
X154219812Y-86243518D01*
X154183502Y-86123820D01*
X154124537Y-86013506D01*
X154045185Y-85916815D01*
X153948494Y-85837463D01*
X153838180Y-85778498D01*
X153718482Y-85742188D01*
X153594000Y-85729928D01*
X152820896Y-85729928D01*
X152817280Y-85693212D01*
X152770963Y-85540527D01*
X152695749Y-85399811D01*
X152594528Y-85276472D01*
X152563614Y-85251102D01*
X152365900Y-85053388D01*
X152340528Y-85022472D01*
X152217189Y-84921251D01*
X152076473Y-84846037D01*
X151923788Y-84799720D01*
X151804791Y-84788000D01*
X151804788Y-84788000D01*
X151765000Y-84784081D01*
X151725212Y-84788000D01*
X150957513Y-84788000D01*
X150670000Y-84500488D01*
X150670000Y-82843788D01*
X150673919Y-82804000D01*
X150667323Y-82737028D01*
X150658280Y-82645212D01*
X150611963Y-82492527D01*
X150574650Y-82422719D01*
X150536749Y-82351810D01*
X150460893Y-82259380D01*
X150435528Y-82228472D01*
X150404619Y-82203106D01*
X149571899Y-81370387D01*
X149546528Y-81339472D01*
X149423189Y-81238251D01*
X149282473Y-81163037D01*
X149129788Y-81116720D01*
X149010791Y-81105000D01*
X149010788Y-81105000D01*
X148971000Y-81101081D01*
X148931212Y-81105000D01*
X147290417Y-81105000D01*
X147292008Y-81099754D01*
X147309072Y-80926500D01*
X147309072Y-80001500D01*
X147292008Y-79828246D01*
X147241472Y-79661650D01*
X147159405Y-79508114D01*
X147048962Y-79373538D01*
X146914386Y-79263095D01*
X146760850Y-79181028D01*
X146594254Y-79130492D01*
X146421000Y-79113428D01*
X145171000Y-79113428D01*
X144997746Y-79130492D01*
X144831150Y-79181028D01*
X144677614Y-79263095D01*
X144543038Y-79373538D01*
X144432595Y-79508114D01*
X144354626Y-79653984D01*
X144314999Y-79650081D01*
X144275211Y-79654000D01*
X144275209Y-79654000D01*
X144156212Y-79665720D01*
X144003527Y-79712037D01*
X143938024Y-79747049D01*
X143862810Y-79787251D01*
X143812858Y-79828246D01*
X143739472Y-79888472D01*
X143714105Y-79919383D01*
X143640559Y-79992928D01*
X143298000Y-79992928D01*
X143173518Y-80005188D01*
X143053820Y-80041498D01*
X142943506Y-80100463D01*
X142846815Y-80179815D01*
X142767463Y-80276506D01*
X142708498Y-80386820D01*
X142672188Y-80506518D01*
X142659928Y-80631000D01*
X142659928Y-81142905D01*
X142649185Y-81129815D01*
X142552494Y-81050463D01*
X142442180Y-80991498D01*
X142322482Y-80955188D01*
X142198000Y-80942928D01*
X141855440Y-80942928D01*
X141213072Y-80300560D01*
X141213072Y-80001500D01*
X141196008Y-79828246D01*
X141145472Y-79661650D01*
X141063405Y-79508114D01*
X140952962Y-79373538D01*
X140818386Y-79263095D01*
X140664850Y-79181028D01*
X140498254Y-79130492D01*
X140325000Y-79113428D01*
X139075000Y-79113428D01*
X138901746Y-79130492D01*
X138735150Y-79181028D01*
X138581614Y-79263095D01*
X138447038Y-79373538D01*
X138336595Y-79508114D01*
X138258617Y-79654000D01*
X137507787Y-79654000D01*
X137467999Y-79650081D01*
X137428211Y-79654000D01*
X137428209Y-79654000D01*
X137309212Y-79665720D01*
X137156527Y-79712037D01*
X137091024Y-79747049D01*
X137015810Y-79787251D01*
X136965858Y-79828246D01*
X136892472Y-79888472D01*
X136867105Y-79919382D01*
X135345387Y-81441101D01*
X135314472Y-81466472D01*
X135259054Y-81534000D01*
X135213251Y-81589811D01*
X135190759Y-81631892D01*
X135138037Y-81730528D01*
X135117213Y-81799175D01*
X134724750Y-81802000D01*
X134566000Y-81960750D01*
X134566000Y-83185000D01*
X134586000Y-83185000D01*
X134586000Y-83439000D01*
X134566000Y-83439000D01*
X134566000Y-83459000D01*
X134312000Y-83459000D01*
X134312000Y-83439000D01*
X133250250Y-83439000D01*
X133091500Y-83597750D01*
X133088605Y-84153000D01*
X132657788Y-84153000D01*
X132618000Y-84149081D01*
X132578212Y-84153000D01*
X132578209Y-84153000D01*
X132459212Y-84164720D01*
X132306527Y-84211037D01*
X132261493Y-84235108D01*
X132165810Y-84286251D01*
X132119813Y-84324000D01*
X132042472Y-84387472D01*
X132017107Y-84418380D01*
X130705560Y-85729928D01*
X129138000Y-85729928D01*
X129013518Y-85742188D01*
X128893820Y-85778498D01*
X128783506Y-85837463D01*
X128686815Y-85916815D01*
X128607463Y-86013506D01*
X128548498Y-86123820D01*
X128512188Y-86243518D01*
X128499928Y-86368000D01*
X128499928Y-87368000D01*
X128512188Y-87492482D01*
X128548498Y-87612180D01*
X128607463Y-87722494D01*
X128686815Y-87819185D01*
X128783506Y-87898537D01*
X128893820Y-87957502D01*
X129013518Y-87993812D01*
X129138000Y-88006072D01*
X132288000Y-88006072D01*
X132412482Y-87993812D01*
X132532180Y-87957502D01*
X132642494Y-87898537D01*
X132739185Y-87819185D01*
X132818537Y-87722494D01*
X132877502Y-87612180D01*
X132913812Y-87492482D01*
X132926072Y-87368000D01*
X132926072Y-86368000D01*
X132913812Y-86243518D01*
X132877502Y-86123820D01*
X132818537Y-86013506D01*
X132770969Y-85955544D01*
X132953513Y-85773000D01*
X133961944Y-85773000D01*
X133943820Y-85778498D01*
X133833506Y-85837463D01*
X133736815Y-85916815D01*
X133657463Y-86013506D01*
X133598498Y-86123820D01*
X133562188Y-86243518D01*
X133549928Y-86368000D01*
X133549928Y-87329407D01*
X133445212Y-87339720D01*
X133292527Y-87386037D01*
X133227024Y-87421049D01*
X133151810Y-87461251D01*
X133108473Y-87496817D01*
X133028472Y-87562472D01*
X133003105Y-87593382D01*
X132323102Y-88273385D01*
X132288000Y-88269928D01*
X129138000Y-88269928D01*
X129013518Y-88282188D01*
X128893820Y-88318498D01*
X128783506Y-88377463D01*
X128686815Y-88456815D01*
X128607463Y-88553506D01*
X128548498Y-88663820D01*
X128512188Y-88783518D01*
X128499928Y-88908000D01*
X128499928Y-89908000D01*
X128512188Y-90032482D01*
X128548498Y-90152180D01*
X128607463Y-90262494D01*
X128686815Y-90359185D01*
X128783506Y-90438537D01*
X128893820Y-90497502D01*
X129013518Y-90533812D01*
X129138000Y-90546072D01*
X132288000Y-90546072D01*
X132412482Y-90533812D01*
X132532180Y-90497502D01*
X132642494Y-90438537D01*
X132739185Y-90359185D01*
X132818537Y-90262494D01*
X132877502Y-90152180D01*
X132913812Y-90032482D01*
X132919875Y-89970920D01*
X132934899Y-89952613D01*
X133549928Y-89337585D01*
X133549928Y-89908000D01*
X133562188Y-90032482D01*
X133598498Y-90152180D01*
X133657463Y-90262494D01*
X133736815Y-90359185D01*
X133833506Y-90438537D01*
X133943820Y-90497502D01*
X134063518Y-90533812D01*
X134188000Y-90546072D01*
X137152560Y-90546072D01*
X137424983Y-90818495D01*
X137338000Y-90809928D01*
X136048750Y-90813000D01*
X135890000Y-90971750D01*
X135890000Y-91821000D01*
X137814250Y-91821000D01*
X137973000Y-91662250D01*
X137976072Y-91448000D01*
X137963812Y-91323518D01*
X137927502Y-91203820D01*
X137921918Y-91193372D01*
X138017212Y-91222280D01*
X138136209Y-91234000D01*
X138136212Y-91234000D01*
X138176000Y-91237919D01*
X138215788Y-91234000D01*
X138258617Y-91234000D01*
X138336595Y-91379886D01*
X138447038Y-91514462D01*
X138581614Y-91624905D01*
X138735150Y-91706972D01*
X138901746Y-91757508D01*
X139075000Y-91774572D01*
X140325000Y-91774572D01*
X140494377Y-91757890D01*
X140675928Y-91939441D01*
X140675928Y-92121949D01*
X140664850Y-92116028D01*
X140498254Y-92065492D01*
X140325000Y-92048428D01*
X139075000Y-92048428D01*
X138901746Y-92065492D01*
X138735150Y-92116028D01*
X138581614Y-92198095D01*
X138447038Y-92308538D01*
X138336595Y-92443114D01*
X138254528Y-92596650D01*
X138203992Y-92763246D01*
X138186928Y-92936500D01*
X138186928Y-93099415D01*
X137876015Y-92788503D01*
X137927502Y-92692180D01*
X137963812Y-92572482D01*
X137976072Y-92448000D01*
X137973000Y-92233750D01*
X137814250Y-92075000D01*
X135890000Y-92075000D01*
X135890000Y-92095000D01*
X135636000Y-92095000D01*
X135636000Y-92075000D01*
X133711750Y-92075000D01*
X133553000Y-92233750D01*
X133550502Y-92408000D01*
X132926072Y-92408000D01*
X132926072Y-91448000D01*
X133549928Y-91448000D01*
X133553000Y-91662250D01*
X133711750Y-91821000D01*
X135636000Y-91821000D01*
X135636000Y-90971750D01*
X135477250Y-90813000D01*
X134188000Y-90809928D01*
X134063518Y-90822188D01*
X133943820Y-90858498D01*
X133833506Y-90917463D01*
X133736815Y-90996815D01*
X133657463Y-91093506D01*
X133598498Y-91203820D01*
X133562188Y-91323518D01*
X133549928Y-91448000D01*
X132926072Y-91448000D01*
X132913812Y-91323518D01*
X132877502Y-91203820D01*
X132818537Y-91093506D01*
X132739185Y-90996815D01*
X132642494Y-90917463D01*
X132532180Y-90858498D01*
X132412482Y-90822188D01*
X132288000Y-90809928D01*
X129138000Y-90809928D01*
X129013518Y-90822188D01*
X128893820Y-90858498D01*
X128783506Y-90917463D01*
X128686815Y-90996815D01*
X128607463Y-91093506D01*
X128548498Y-91203820D01*
X128512188Y-91323518D01*
X128499928Y-91448000D01*
X128499928Y-92448000D01*
X128512188Y-92572482D01*
X128548498Y-92692180D01*
X128607463Y-92802494D01*
X128686815Y-92899185D01*
X128783506Y-92978537D01*
X128893820Y-93037502D01*
X129013518Y-93073812D01*
X129138000Y-93086072D01*
X130705560Y-93086072D01*
X131382105Y-93762618D01*
X131407472Y-93793528D01*
X131475210Y-93849119D01*
X131530810Y-93894749D01*
X131606024Y-93934951D01*
X131671527Y-93969963D01*
X131824212Y-94016280D01*
X131943209Y-94028000D01*
X131943211Y-94028000D01*
X131982999Y-94031919D01*
X132022787Y-94028000D01*
X132372005Y-94028000D01*
X132370498Y-94030820D01*
X132334188Y-94150518D01*
X132321928Y-94275000D01*
X132321928Y-96275000D01*
X132334188Y-96399482D01*
X132370498Y-96519180D01*
X132429463Y-96629494D01*
X132508815Y-96726185D01*
X132605506Y-96805537D01*
X132715820Y-96864502D01*
X132835518Y-96900812D01*
X132960000Y-96913072D01*
X133975000Y-96913072D01*
X133975001Y-99952378D01*
X133865820Y-99985498D01*
X133755506Y-100044463D01*
X133710000Y-100081809D01*
X133664494Y-100044463D01*
X133554180Y-99985498D01*
X133434482Y-99949188D01*
X133310000Y-99936928D01*
X132845750Y-99940000D01*
X132687000Y-100098750D01*
X132687000Y-101448000D01*
X132707000Y-101448000D01*
X132707000Y-101702000D01*
X132687000Y-101702000D01*
X132687000Y-103051250D01*
X132845750Y-103210000D01*
X133310000Y-103213072D01*
X133434482Y-103200812D01*
X133554180Y-103164502D01*
X133664494Y-103105537D01*
X133710000Y-103068191D01*
X133755506Y-103105537D01*
X133865820Y-103164502D01*
X133985518Y-103200812D01*
X134001735Y-103202409D01*
X134038411Y-103323312D01*
X134120589Y-103477058D01*
X134231183Y-103611817D01*
X134264956Y-103639534D01*
X134471466Y-103846044D01*
X134499183Y-103879817D01*
X134633941Y-103990411D01*
X134787687Y-104072589D01*
X134954510Y-104123195D01*
X135084523Y-104136000D01*
X135084533Y-104136000D01*
X135127999Y-104140281D01*
X135171465Y-104136000D01*
X138513531Y-104136000D01*
X138557000Y-104140281D01*
X138600469Y-104136000D01*
X138600477Y-104136000D01*
X138730490Y-104123195D01*
X138897313Y-104072589D01*
X139051059Y-103990411D01*
X139185817Y-103879817D01*
X139213534Y-103846044D01*
X140574579Y-102485000D01*
X144101531Y-102485000D01*
X144145000Y-102489281D01*
X144188469Y-102485000D01*
X144188477Y-102485000D01*
X144318490Y-102472195D01*
X144485313Y-102421589D01*
X144639059Y-102339411D01*
X144773817Y-102228817D01*
X144801534Y-102195044D01*
X146391049Y-100605530D01*
X146424817Y-100577817D01*
X146535411Y-100443059D01*
X146617589Y-100289314D01*
X146668195Y-100122490D01*
X146670533Y-100098750D01*
X146681000Y-99992477D01*
X146681000Y-99992469D01*
X146685281Y-99949000D01*
X146681000Y-99905531D01*
X146681000Y-99695694D01*
X146760850Y-99671472D01*
X146914386Y-99589405D01*
X147048962Y-99478962D01*
X147159405Y-99344386D01*
X147197294Y-99273500D01*
X147694031Y-99273500D01*
X147737500Y-99277781D01*
X147780969Y-99273500D01*
X147780977Y-99273500D01*
X147910990Y-99260695D01*
X148077813Y-99210089D01*
X148231559Y-99127911D01*
X148366317Y-99017317D01*
X148394034Y-98983544D01*
X148677045Y-98700533D01*
X148710817Y-98672817D01*
X148821411Y-98538059D01*
X148878905Y-98430494D01*
X148903589Y-98384314D01*
X148954195Y-98217490D01*
X148954744Y-98211912D01*
X149046850Y-98183972D01*
X149200386Y-98101905D01*
X149334962Y-97991462D01*
X149445405Y-97856886D01*
X149483294Y-97786000D01*
X149981928Y-97786000D01*
X149981928Y-97826001D01*
X149998992Y-97999255D01*
X150049528Y-98165851D01*
X150131595Y-98319387D01*
X150242038Y-98453962D01*
X150376613Y-98564405D01*
X150530149Y-98646472D01*
X150696745Y-98697008D01*
X150869999Y-98714072D01*
X152620001Y-98714072D01*
X152793255Y-98697008D01*
X152959851Y-98646472D01*
X153113387Y-98564405D01*
X153247962Y-98453962D01*
X153358405Y-98319387D01*
X153440472Y-98165851D01*
X153467727Y-98076000D01*
X155081928Y-98076000D01*
X155094188Y-98200482D01*
X155130498Y-98320180D01*
X155189463Y-98430494D01*
X155268815Y-98527185D01*
X155365506Y-98606537D01*
X155475820Y-98665502D01*
X155595518Y-98701812D01*
X155720000Y-98714072D01*
X156559250Y-98711000D01*
X156718000Y-98552250D01*
X156718000Y-97028000D01*
X156972000Y-97028000D01*
X156972000Y-98552250D01*
X157130750Y-98711000D01*
X157970000Y-98714072D01*
X158094482Y-98701812D01*
X158214180Y-98665502D01*
X158324494Y-98606537D01*
X158421185Y-98527185D01*
X158500537Y-98430494D01*
X158559502Y-98320180D01*
X158595812Y-98200482D01*
X158608072Y-98076000D01*
X158605000Y-97186750D01*
X158446250Y-97028000D01*
X156972000Y-97028000D01*
X156718000Y-97028000D01*
X155243750Y-97028000D01*
X155085000Y-97186750D01*
X155081928Y-98076000D01*
X153467727Y-98076000D01*
X153491008Y-97999255D01*
X153508072Y-97826001D01*
X153508072Y-95975999D01*
X153491008Y-95802745D01*
X153467728Y-95726000D01*
X155081928Y-95726000D01*
X155085000Y-96615250D01*
X155243750Y-96774000D01*
X156718000Y-96774000D01*
X156718000Y-95249750D01*
X156972000Y-95249750D01*
X156972000Y-96774000D01*
X158446250Y-96774000D01*
X158605000Y-96615250D01*
X158608072Y-95726000D01*
X158595812Y-95601518D01*
X158559502Y-95481820D01*
X158500537Y-95371506D01*
X158421185Y-95274815D01*
X158324494Y-95195463D01*
X158214180Y-95136498D01*
X158094482Y-95100188D01*
X157970000Y-95087928D01*
X157130750Y-95091000D01*
X156972000Y-95249750D01*
X156718000Y-95249750D01*
X156559250Y-95091000D01*
X155720000Y-95087928D01*
X155595518Y-95100188D01*
X155475820Y-95136498D01*
X155365506Y-95195463D01*
X155268815Y-95274815D01*
X155189463Y-95371506D01*
X155130498Y-95481820D01*
X155094188Y-95601518D01*
X155081928Y-95726000D01*
X153467728Y-95726000D01*
X153440472Y-95636149D01*
X153358405Y-95482613D01*
X153247962Y-95348038D01*
X153113387Y-95237595D01*
X152959851Y-95155528D01*
X152793255Y-95104992D01*
X152630000Y-95088913D01*
X152630000Y-95001578D01*
X152893579Y-94738000D01*
X154134531Y-94738000D01*
X154178000Y-94742281D01*
X154221469Y-94738000D01*
X154221477Y-94738000D01*
X154351490Y-94725195D01*
X154518313Y-94674589D01*
X154672059Y-94592411D01*
X154806817Y-94481817D01*
X154834534Y-94448044D01*
X155154044Y-94128534D01*
X155187817Y-94100817D01*
X155298411Y-93966059D01*
X155380589Y-93812313D01*
X155431195Y-93645490D01*
X155444000Y-93515477D01*
X155444000Y-93515467D01*
X155448281Y-93472001D01*
X155444000Y-93428535D01*
X155444000Y-93081148D01*
X155494000Y-93086072D01*
X156783250Y-93083000D01*
X156942000Y-92924250D01*
X156942000Y-92075000D01*
X157196000Y-92075000D01*
X157196000Y-92924250D01*
X157354750Y-93083000D01*
X158644000Y-93086072D01*
X158768482Y-93073812D01*
X158888180Y-93037502D01*
X158998494Y-92978537D01*
X159095185Y-92899185D01*
X159174537Y-92802494D01*
X159233502Y-92692180D01*
X159269812Y-92572482D01*
X159282072Y-92448000D01*
X159279000Y-92233750D01*
X159120250Y-92075000D01*
X157196000Y-92075000D01*
X156942000Y-92075000D01*
X156922000Y-92075000D01*
X156922000Y-91821000D01*
X156942000Y-91821000D01*
X156942000Y-91801000D01*
X157196000Y-91801000D01*
X157196000Y-91821000D01*
X159120250Y-91821000D01*
X159279000Y-91662250D01*
X159282072Y-91448000D01*
X159276442Y-91390835D01*
X159378817Y-91306817D01*
X159406534Y-91273044D01*
X159893000Y-90786579D01*
X159893000Y-104648000D01*
X127762000Y-104648000D01*
X127762000Y-102575000D01*
X131171928Y-102575000D01*
X131184188Y-102699482D01*
X131220498Y-102819180D01*
X131279463Y-102929494D01*
X131358815Y-103026185D01*
X131455506Y-103105537D01*
X131565820Y-103164502D01*
X131685518Y-103200812D01*
X131810000Y-103213072D01*
X132274250Y-103210000D01*
X132433000Y-103051250D01*
X132433000Y-101702000D01*
X131333750Y-101702000D01*
X131175000Y-101860750D01*
X131171928Y-102575000D01*
X127762000Y-102575000D01*
X127762000Y-100575000D01*
X131171928Y-100575000D01*
X131175000Y-101289250D01*
X131333750Y-101448000D01*
X132433000Y-101448000D01*
X132433000Y-100098750D01*
X132274250Y-99940000D01*
X131810000Y-99936928D01*
X131685518Y-99949188D01*
X131565820Y-99985498D01*
X131455506Y-100044463D01*
X131358815Y-100123815D01*
X131279463Y-100220506D01*
X131220498Y-100330820D01*
X131184188Y-100450518D01*
X131171928Y-100575000D01*
X127762000Y-100575000D01*
X127762000Y-82437000D01*
X133088428Y-82437000D01*
X133091500Y-83026250D01*
X133250250Y-83185000D01*
X134312000Y-83185000D01*
X134312000Y-81960750D01*
X134153250Y-81802000D01*
X133726500Y-81798928D01*
X133602018Y-81811188D01*
X133482320Y-81847498D01*
X133372006Y-81906463D01*
X133275315Y-81985815D01*
X133195963Y-82082506D01*
X133136998Y-82192820D01*
X133100688Y-82312518D01*
X133088428Y-82437000D01*
X127762000Y-82437000D01*
X127762000Y-78867000D01*
X159893000Y-78867000D01*
X159893000Y-86378422D01*
G37*
X159893000Y-86378422D02*
X159787532Y-86272954D01*
X159759817Y-86239183D01*
X159625059Y-86128589D01*
X159471313Y-86046411D01*
X159304490Y-85995805D01*
X159174477Y-85983000D01*
X159174469Y-85983000D01*
X159147306Y-85980325D01*
X159095185Y-85916815D01*
X158998494Y-85837463D01*
X158888180Y-85778498D01*
X158768482Y-85742188D01*
X158644000Y-85729928D01*
X155494000Y-85729928D01*
X155369518Y-85742188D01*
X155249820Y-85778498D01*
X155139506Y-85837463D01*
X155042815Y-85916815D01*
X154963463Y-86013506D01*
X154904498Y-86123820D01*
X154868188Y-86243518D01*
X154855928Y-86368000D01*
X154855928Y-87368000D01*
X154868188Y-87492482D01*
X154904498Y-87612180D01*
X154963463Y-87722494D01*
X155042815Y-87819185D01*
X155139506Y-87898537D01*
X155249820Y-87957502D01*
X155369518Y-87993812D01*
X155494000Y-88006072D01*
X158627000Y-88006072D01*
X158627000Y-88269928D01*
X155494000Y-88269928D01*
X155369518Y-88282188D01*
X155249820Y-88318498D01*
X155139506Y-88377463D01*
X155042815Y-88456815D01*
X154963463Y-88553506D01*
X154913715Y-88646576D01*
X154882527Y-88656037D01*
X154832794Y-88682620D01*
X154741810Y-88731251D01*
X154686210Y-88776881D01*
X154618472Y-88832472D01*
X154593107Y-88863380D01*
X154232072Y-89224415D01*
X154232072Y-88908000D01*
X154219812Y-88783518D01*
X154183502Y-88663820D01*
X154124537Y-88553506D01*
X154045185Y-88456815D01*
X153948494Y-88377463D01*
X153838180Y-88318498D01*
X153718482Y-88282188D01*
X153594000Y-88269928D01*
X150543000Y-88269928D01*
X150543000Y-88006072D01*
X153594000Y-88006072D01*
X153718482Y-87993812D01*
X153838180Y-87957502D01*
X153948494Y-87898537D01*
X154045185Y-87819185D01*
X154124537Y-87722494D01*
X154183502Y-87612180D01*
X154219812Y-87492482D01*
X154232072Y-87368000D01*
X154232072Y-86368000D01*
X154219812Y-86243518D01*
X154183502Y-86123820D01*
X154124537Y-86013506D01*
X154045185Y-85916815D01*
X153948494Y-85837463D01*
X153838180Y-85778498D01*
X153718482Y-85742188D01*
X153594000Y-85729928D01*
X152820896Y-85729928D01*
X152817280Y-85693212D01*
X152770963Y-85540527D01*
X152695749Y-85399811D01*
X152594528Y-85276472D01*
X152563614Y-85251102D01*
X152365900Y-85053388D01*
X152340528Y-85022472D01*
X152217189Y-84921251D01*
X152076473Y-84846037D01*
X151923788Y-84799720D01*
X151804791Y-84788000D01*
X151804788Y-84788000D01*
X151765000Y-84784081D01*
X151725212Y-84788000D01*
X150957513Y-84788000D01*
X150670000Y-84500488D01*
X150670000Y-82843788D01*
X150673919Y-82804000D01*
X150667323Y-82737028D01*
X150658280Y-82645212D01*
X150611963Y-82492527D01*
X150574650Y-82422719D01*
X150536749Y-82351810D01*
X150460893Y-82259380D01*
X150435528Y-82228472D01*
X150404619Y-82203106D01*
X149571899Y-81370387D01*
X149546528Y-81339472D01*
X149423189Y-81238251D01*
X149282473Y-81163037D01*
X149129788Y-81116720D01*
X149010791Y-81105000D01*
X149010788Y-81105000D01*
X148971000Y-81101081D01*
X148931212Y-81105000D01*
X147290417Y-81105000D01*
X147292008Y-81099754D01*
X147309072Y-80926500D01*
X147309072Y-80001500D01*
X147292008Y-79828246D01*
X147241472Y-79661650D01*
X147159405Y-79508114D01*
X147048962Y-79373538D01*
X146914386Y-79263095D01*
X146760850Y-79181028D01*
X146594254Y-79130492D01*
X146421000Y-79113428D01*
X145171000Y-79113428D01*
X144997746Y-79130492D01*
X144831150Y-79181028D01*
X144677614Y-79263095D01*
X144543038Y-79373538D01*
X144432595Y-79508114D01*
X144354626Y-79653984D01*
X144314999Y-79650081D01*
X144275211Y-79654000D01*
X144275209Y-79654000D01*
X144156212Y-79665720D01*
X144003527Y-79712037D01*
X143938024Y-79747049D01*
X143862810Y-79787251D01*
X143812858Y-79828246D01*
X143739472Y-79888472D01*
X143714105Y-79919383D01*
X143640559Y-79992928D01*
X143298000Y-79992928D01*
X143173518Y-80005188D01*
X143053820Y-80041498D01*
X142943506Y-80100463D01*
X142846815Y-80179815D01*
X142767463Y-80276506D01*
X142708498Y-80386820D01*
X142672188Y-80506518D01*
X142659928Y-80631000D01*
X142659928Y-81142905D01*
X142649185Y-81129815D01*
X142552494Y-81050463D01*
X142442180Y-80991498D01*
X142322482Y-80955188D01*
X142198000Y-80942928D01*
X141855440Y-80942928D01*
X141213072Y-80300560D01*
X141213072Y-80001500D01*
X141196008Y-79828246D01*
X141145472Y-79661650D01*
X141063405Y-79508114D01*
X140952962Y-79373538D01*
X140818386Y-79263095D01*
X140664850Y-79181028D01*
X140498254Y-79130492D01*
X140325000Y-79113428D01*
X139075000Y-79113428D01*
X138901746Y-79130492D01*
X138735150Y-79181028D01*
X138581614Y-79263095D01*
X138447038Y-79373538D01*
X138336595Y-79508114D01*
X138258617Y-79654000D01*
X137507787Y-79654000D01*
X137467999Y-79650081D01*
X137428211Y-79654000D01*
X137428209Y-79654000D01*
X137309212Y-79665720D01*
X137156527Y-79712037D01*
X137091024Y-79747049D01*
X137015810Y-79787251D01*
X136965858Y-79828246D01*
X136892472Y-79888472D01*
X136867105Y-79919382D01*
X135345387Y-81441101D01*
X135314472Y-81466472D01*
X135259054Y-81534000D01*
X135213251Y-81589811D01*
X135190759Y-81631892D01*
X135138037Y-81730528D01*
X135117213Y-81799175D01*
X134724750Y-81802000D01*
X134566000Y-81960750D01*
X134566000Y-83185000D01*
X134586000Y-83185000D01*
X134586000Y-83439000D01*
X134566000Y-83439000D01*
X134566000Y-83459000D01*
X134312000Y-83459000D01*
X134312000Y-83439000D01*
X133250250Y-83439000D01*
X133091500Y-83597750D01*
X133088605Y-84153000D01*
X132657788Y-84153000D01*
X132618000Y-84149081D01*
X132578212Y-84153000D01*
X132578209Y-84153000D01*
X132459212Y-84164720D01*
X132306527Y-84211037D01*
X132261493Y-84235108D01*
X132165810Y-84286251D01*
X132119813Y-84324000D01*
X132042472Y-84387472D01*
X132017107Y-84418380D01*
X130705560Y-85729928D01*
X129138000Y-85729928D01*
X129013518Y-85742188D01*
X128893820Y-85778498D01*
X128783506Y-85837463D01*
X128686815Y-85916815D01*
X128607463Y-86013506D01*
X128548498Y-86123820D01*
X128512188Y-86243518D01*
X128499928Y-86368000D01*
X128499928Y-87368000D01*
X128512188Y-87492482D01*
X128548498Y-87612180D01*
X128607463Y-87722494D01*
X128686815Y-87819185D01*
X128783506Y-87898537D01*
X128893820Y-87957502D01*
X129013518Y-87993812D01*
X129138000Y-88006072D01*
X132288000Y-88006072D01*
X132412482Y-87993812D01*
X132532180Y-87957502D01*
X132642494Y-87898537D01*
X132739185Y-87819185D01*
X132818537Y-87722494D01*
X132877502Y-87612180D01*
X132913812Y-87492482D01*
X132926072Y-87368000D01*
X132926072Y-86368000D01*
X132913812Y-86243518D01*
X132877502Y-86123820D01*
X132818537Y-86013506D01*
X132770969Y-85955544D01*
X132953513Y-85773000D01*
X133961944Y-85773000D01*
X133943820Y-85778498D01*
X133833506Y-85837463D01*
X133736815Y-85916815D01*
X133657463Y-86013506D01*
X133598498Y-86123820D01*
X133562188Y-86243518D01*
X133549928Y-86368000D01*
X133549928Y-87329407D01*
X133445212Y-87339720D01*
X133292527Y-87386037D01*
X133227024Y-87421049D01*
X133151810Y-87461251D01*
X133108473Y-87496817D01*
X133028472Y-87562472D01*
X133003105Y-87593382D01*
X132323102Y-88273385D01*
X132288000Y-88269928D01*
X129138000Y-88269928D01*
X129013518Y-88282188D01*
X128893820Y-88318498D01*
X128783506Y-88377463D01*
X128686815Y-88456815D01*
X128607463Y-88553506D01*
X128548498Y-88663820D01*
X128512188Y-88783518D01*
X128499928Y-88908000D01*
X128499928Y-89908000D01*
X128512188Y-90032482D01*
X128548498Y-90152180D01*
X128607463Y-90262494D01*
X128686815Y-90359185D01*
X128783506Y-90438537D01*
X128893820Y-90497502D01*
X129013518Y-90533812D01*
X129138000Y-90546072D01*
X132288000Y-90546072D01*
X132412482Y-90533812D01*
X132532180Y-90497502D01*
X132642494Y-90438537D01*
X132739185Y-90359185D01*
X132818537Y-90262494D01*
X132877502Y-90152180D01*
X132913812Y-90032482D01*
X132919875Y-89970920D01*
X132934899Y-89952613D01*
X133549928Y-89337585D01*
X133549928Y-89908000D01*
X133562188Y-90032482D01*
X133598498Y-90152180D01*
X133657463Y-90262494D01*
X133736815Y-90359185D01*
X133833506Y-90438537D01*
X133943820Y-90497502D01*
X134063518Y-90533812D01*
X134188000Y-90546072D01*
X137152560Y-90546072D01*
X137424983Y-90818495D01*
X137338000Y-90809928D01*
X136048750Y-90813000D01*
X135890000Y-90971750D01*
X135890000Y-91821000D01*
X137814250Y-91821000D01*
X137973000Y-91662250D01*
X137976072Y-91448000D01*
X137963812Y-91323518D01*
X137927502Y-91203820D01*
X137921918Y-91193372D01*
X138017212Y-91222280D01*
X138136209Y-91234000D01*
X138136212Y-91234000D01*
X138176000Y-91237919D01*
X138215788Y-91234000D01*
X138258617Y-91234000D01*
X138336595Y-91379886D01*
X138447038Y-91514462D01*
X138581614Y-91624905D01*
X138735150Y-91706972D01*
X138901746Y-91757508D01*
X139075000Y-91774572D01*
X140325000Y-91774572D01*
X140494377Y-91757890D01*
X140675928Y-91939441D01*
X140675928Y-92121949D01*
X140664850Y-92116028D01*
X140498254Y-92065492D01*
X140325000Y-92048428D01*
X139075000Y-92048428D01*
X138901746Y-92065492D01*
X138735150Y-92116028D01*
X138581614Y-92198095D01*
X138447038Y-92308538D01*
X138336595Y-92443114D01*
X138254528Y-92596650D01*
X138203992Y-92763246D01*
X138186928Y-92936500D01*
X138186928Y-93099415D01*
X137876015Y-92788503D01*
X137927502Y-92692180D01*
X137963812Y-92572482D01*
X137976072Y-92448000D01*
X137973000Y-92233750D01*
X137814250Y-92075000D01*
X135890000Y-92075000D01*
X135890000Y-92095000D01*
X135636000Y-92095000D01*
X135636000Y-92075000D01*
X133711750Y-92075000D01*
X133553000Y-92233750D01*
X133550502Y-92408000D01*
X132926072Y-92408000D01*
X132926072Y-91448000D01*
X133549928Y-91448000D01*
X133553000Y-91662250D01*
X133711750Y-91821000D01*
X135636000Y-91821000D01*
X135636000Y-90971750D01*
X135477250Y-90813000D01*
X134188000Y-90809928D01*
X134063518Y-90822188D01*
X133943820Y-90858498D01*
X133833506Y-90917463D01*
X133736815Y-90996815D01*
X133657463Y-91093506D01*
X133598498Y-91203820D01*
X133562188Y-91323518D01*
X133549928Y-91448000D01*
X132926072Y-91448000D01*
X132913812Y-91323518D01*
X132877502Y-91203820D01*
X132818537Y-91093506D01*
X132739185Y-90996815D01*
X132642494Y-90917463D01*
X132532180Y-90858498D01*
X132412482Y-90822188D01*
X132288000Y-90809928D01*
X129138000Y-90809928D01*
X129013518Y-90822188D01*
X128893820Y-90858498D01*
X128783506Y-90917463D01*
X128686815Y-90996815D01*
X128607463Y-91093506D01*
X128548498Y-91203820D01*
X128512188Y-91323518D01*
X128499928Y-91448000D01*
X128499928Y-92448000D01*
X128512188Y-92572482D01*
X128548498Y-92692180D01*
X128607463Y-92802494D01*
X128686815Y-92899185D01*
X128783506Y-92978537D01*
X128893820Y-93037502D01*
X129013518Y-93073812D01*
X129138000Y-93086072D01*
X130705560Y-93086072D01*
X131382105Y-93762618D01*
X131407472Y-93793528D01*
X131475210Y-93849119D01*
X131530810Y-93894749D01*
X131606024Y-93934951D01*
X131671527Y-93969963D01*
X131824212Y-94016280D01*
X131943209Y-94028000D01*
X131943211Y-94028000D01*
X131982999Y-94031919D01*
X132022787Y-94028000D01*
X132372005Y-94028000D01*
X132370498Y-94030820D01*
X132334188Y-94150518D01*
X132321928Y-94275000D01*
X132321928Y-96275000D01*
X132334188Y-96399482D01*
X132370498Y-96519180D01*
X132429463Y-96629494D01*
X132508815Y-96726185D01*
X132605506Y-96805537D01*
X132715820Y-96864502D01*
X132835518Y-96900812D01*
X132960000Y-96913072D01*
X133975000Y-96913072D01*
X133975001Y-99952378D01*
X133865820Y-99985498D01*
X133755506Y-100044463D01*
X133710000Y-100081809D01*
X133664494Y-100044463D01*
X133554180Y-99985498D01*
X133434482Y-99949188D01*
X133310000Y-99936928D01*
X132845750Y-99940000D01*
X132687000Y-100098750D01*
X132687000Y-101448000D01*
X132707000Y-101448000D01*
X132707000Y-101702000D01*
X132687000Y-101702000D01*
X132687000Y-103051250D01*
X132845750Y-103210000D01*
X133310000Y-103213072D01*
X133434482Y-103200812D01*
X133554180Y-103164502D01*
X133664494Y-103105537D01*
X133710000Y-103068191D01*
X133755506Y-103105537D01*
X133865820Y-103164502D01*
X133985518Y-103200812D01*
X134001735Y-103202409D01*
X134038411Y-103323312D01*
X134120589Y-103477058D01*
X134231183Y-103611817D01*
X134264956Y-103639534D01*
X134471466Y-103846044D01*
X134499183Y-103879817D01*
X134633941Y-103990411D01*
X134787687Y-104072589D01*
X134954510Y-104123195D01*
X135084523Y-104136000D01*
X135084533Y-104136000D01*
X135127999Y-104140281D01*
X135171465Y-104136000D01*
X138513531Y-104136000D01*
X138557000Y-104140281D01*
X138600469Y-104136000D01*
X138600477Y-104136000D01*
X138730490Y-104123195D01*
X138897313Y-104072589D01*
X139051059Y-103990411D01*
X139185817Y-103879817D01*
X139213534Y-103846044D01*
X140574579Y-102485000D01*
X144101531Y-102485000D01*
X144145000Y-102489281D01*
X144188469Y-102485000D01*
X144188477Y-102485000D01*
X144318490Y-102472195D01*
X144485313Y-102421589D01*
X144639059Y-102339411D01*
X144773817Y-102228817D01*
X144801534Y-102195044D01*
X146391049Y-100605530D01*
X146424817Y-100577817D01*
X146535411Y-100443059D01*
X146617589Y-100289314D01*
X146668195Y-100122490D01*
X146670533Y-100098750D01*
X146681000Y-99992477D01*
X146681000Y-99992469D01*
X146685281Y-99949000D01*
X146681000Y-99905531D01*
X146681000Y-99695694D01*
X146760850Y-99671472D01*
X146914386Y-99589405D01*
X147048962Y-99478962D01*
X147159405Y-99344386D01*
X147197294Y-99273500D01*
X147694031Y-99273500D01*
X147737500Y-99277781D01*
X147780969Y-99273500D01*
X147780977Y-99273500D01*
X147910990Y-99260695D01*
X148077813Y-99210089D01*
X148231559Y-99127911D01*
X148366317Y-99017317D01*
X148394034Y-98983544D01*
X148677045Y-98700533D01*
X148710817Y-98672817D01*
X148821411Y-98538059D01*
X148878905Y-98430494D01*
X148903589Y-98384314D01*
X148954195Y-98217490D01*
X148954744Y-98211912D01*
X149046850Y-98183972D01*
X149200386Y-98101905D01*
X149334962Y-97991462D01*
X149445405Y-97856886D01*
X149483294Y-97786000D01*
X149981928Y-97786000D01*
X149981928Y-97826001D01*
X149998992Y-97999255D01*
X150049528Y-98165851D01*
X150131595Y-98319387D01*
X150242038Y-98453962D01*
X150376613Y-98564405D01*
X150530149Y-98646472D01*
X150696745Y-98697008D01*
X150869999Y-98714072D01*
X152620001Y-98714072D01*
X152793255Y-98697008D01*
X152959851Y-98646472D01*
X153113387Y-98564405D01*
X153247962Y-98453962D01*
X153358405Y-98319387D01*
X153440472Y-98165851D01*
X153467727Y-98076000D01*
X155081928Y-98076000D01*
X155094188Y-98200482D01*
X155130498Y-98320180D01*
X155189463Y-98430494D01*
X155268815Y-98527185D01*
X155365506Y-98606537D01*
X155475820Y-98665502D01*
X155595518Y-98701812D01*
X155720000Y-98714072D01*
X156559250Y-98711000D01*
X156718000Y-98552250D01*
X156718000Y-97028000D01*
X156972000Y-97028000D01*
X156972000Y-98552250D01*
X157130750Y-98711000D01*
X157970000Y-98714072D01*
X158094482Y-98701812D01*
X158214180Y-98665502D01*
X158324494Y-98606537D01*
X158421185Y-98527185D01*
X158500537Y-98430494D01*
X158559502Y-98320180D01*
X158595812Y-98200482D01*
X158608072Y-98076000D01*
X158605000Y-97186750D01*
X158446250Y-97028000D01*
X156972000Y-97028000D01*
X156718000Y-97028000D01*
X155243750Y-97028000D01*
X155085000Y-97186750D01*
X155081928Y-98076000D01*
X153467727Y-98076000D01*
X153491008Y-97999255D01*
X153508072Y-97826001D01*
X153508072Y-95975999D01*
X153491008Y-95802745D01*
X153467728Y-95726000D01*
X155081928Y-95726000D01*
X155085000Y-96615250D01*
X155243750Y-96774000D01*
X156718000Y-96774000D01*
X156718000Y-95249750D01*
X156972000Y-95249750D01*
X156972000Y-96774000D01*
X158446250Y-96774000D01*
X158605000Y-96615250D01*
X158608072Y-95726000D01*
X158595812Y-95601518D01*
X158559502Y-95481820D01*
X158500537Y-95371506D01*
X158421185Y-95274815D01*
X158324494Y-95195463D01*
X158214180Y-95136498D01*
X158094482Y-95100188D01*
X157970000Y-95087928D01*
X157130750Y-95091000D01*
X156972000Y-95249750D01*
X156718000Y-95249750D01*
X156559250Y-95091000D01*
X155720000Y-95087928D01*
X155595518Y-95100188D01*
X155475820Y-95136498D01*
X155365506Y-95195463D01*
X155268815Y-95274815D01*
X155189463Y-95371506D01*
X155130498Y-95481820D01*
X155094188Y-95601518D01*
X155081928Y-95726000D01*
X153467728Y-95726000D01*
X153440472Y-95636149D01*
X153358405Y-95482613D01*
X153247962Y-95348038D01*
X153113387Y-95237595D01*
X152959851Y-95155528D01*
X152793255Y-95104992D01*
X152630000Y-95088913D01*
X152630000Y-95001578D01*
X152893579Y-94738000D01*
X154134531Y-94738000D01*
X154178000Y-94742281D01*
X154221469Y-94738000D01*
X154221477Y-94738000D01*
X154351490Y-94725195D01*
X154518313Y-94674589D01*
X154672059Y-94592411D01*
X154806817Y-94481817D01*
X154834534Y-94448044D01*
X155154044Y-94128534D01*
X155187817Y-94100817D01*
X155298411Y-93966059D01*
X155380589Y-93812313D01*
X155431195Y-93645490D01*
X155444000Y-93515477D01*
X155444000Y-93515467D01*
X155448281Y-93472001D01*
X155444000Y-93428535D01*
X155444000Y-93081148D01*
X155494000Y-93086072D01*
X156783250Y-93083000D01*
X156942000Y-92924250D01*
X156942000Y-92075000D01*
X157196000Y-92075000D01*
X157196000Y-92924250D01*
X157354750Y-93083000D01*
X158644000Y-93086072D01*
X158768482Y-93073812D01*
X158888180Y-93037502D01*
X158998494Y-92978537D01*
X159095185Y-92899185D01*
X159174537Y-92802494D01*
X159233502Y-92692180D01*
X159269812Y-92572482D01*
X159282072Y-92448000D01*
X159279000Y-92233750D01*
X159120250Y-92075000D01*
X157196000Y-92075000D01*
X156942000Y-92075000D01*
X156922000Y-92075000D01*
X156922000Y-91821000D01*
X156942000Y-91821000D01*
X156942000Y-91801000D01*
X157196000Y-91801000D01*
X157196000Y-91821000D01*
X159120250Y-91821000D01*
X159279000Y-91662250D01*
X159282072Y-91448000D01*
X159276442Y-91390835D01*
X159378817Y-91306817D01*
X159406534Y-91273044D01*
X159893000Y-90786579D01*
X159893000Y-104648000D01*
X127762000Y-104648000D01*
X127762000Y-102575000D01*
X131171928Y-102575000D01*
X131184188Y-102699482D01*
X131220498Y-102819180D01*
X131279463Y-102929494D01*
X131358815Y-103026185D01*
X131455506Y-103105537D01*
X131565820Y-103164502D01*
X131685518Y-103200812D01*
X131810000Y-103213072D01*
X132274250Y-103210000D01*
X132433000Y-103051250D01*
X132433000Y-101702000D01*
X131333750Y-101702000D01*
X131175000Y-101860750D01*
X131171928Y-102575000D01*
X127762000Y-102575000D01*
X127762000Y-100575000D01*
X131171928Y-100575000D01*
X131175000Y-101289250D01*
X131333750Y-101448000D01*
X132433000Y-101448000D01*
X132433000Y-100098750D01*
X132274250Y-99940000D01*
X131810000Y-99936928D01*
X131685518Y-99949188D01*
X131565820Y-99985498D01*
X131455506Y-100044463D01*
X131358815Y-100123815D01*
X131279463Y-100220506D01*
X131220498Y-100330820D01*
X131184188Y-100450518D01*
X131171928Y-100575000D01*
X127762000Y-100575000D01*
X127762000Y-82437000D01*
X133088428Y-82437000D01*
X133091500Y-83026250D01*
X133250250Y-83185000D01*
X134312000Y-83185000D01*
X134312000Y-81960750D01*
X134153250Y-81802000D01*
X133726500Y-81798928D01*
X133602018Y-81811188D01*
X133482320Y-81847498D01*
X133372006Y-81906463D01*
X133275315Y-81985815D01*
X133195963Y-82082506D01*
X133136998Y-82192820D01*
X133100688Y-82312518D01*
X133088428Y-82437000D01*
X127762000Y-82437000D01*
X127762000Y-78867000D01*
X159893000Y-78867000D01*
X159893000Y-86378422D01*
%TD*%
M02*
