%TF.GenerationSoftware,KiCad,Pcbnew,(5.1.6)-1*%
%TF.CreationDate,2020-06-05T20:50:24+02:00*%
%TF.ProjectId,TinyISPLevelShifter,54696e79-4953-4504-9c65-76656c536869,rev?*%
%TF.SameCoordinates,Original*%
%TF.FileFunction,Soldermask,Top*%
%TF.FilePolarity,Negative*%
%FSLAX46Y46*%
G04 Gerber Fmt 4.6, Leading zero omitted, Abs format (unit mm)*
G04 Created by KiCad (PCBNEW (5.1.6)-1) date 2020-06-05 20:50:24*
%MOMM*%
%LPD*%
G01*
G04 APERTURE LIST*
%ADD10R,3.250000X1.100000*%
%ADD11R,1.600000X2.100000*%
%ADD12R,3.900000X2.100000*%
%ADD13R,1.000000X0.900000*%
G04 APERTURE END LIST*
D10*
%TO.C,J2*%
X135763000Y-91948000D03*
X130713000Y-91948000D03*
X135763000Y-89408000D03*
X130713000Y-89408000D03*
X135763000Y-86868000D03*
X130713000Y-86868000D03*
%TD*%
%TO.C,J1*%
X157069000Y-91948000D03*
X152019000Y-91948000D03*
X157069000Y-89408000D03*
X152019000Y-89408000D03*
X157069000Y-86868000D03*
X152019000Y-86868000D03*
%TD*%
%TO.C,R11*%
G36*
G01*
X147424544Y-96138500D02*
X148739456Y-96138500D01*
G75*
G02*
X149007000Y-96406044I0J-267544D01*
G01*
X149007000Y-97395956D01*
G75*
G02*
X148739456Y-97663500I-267544J0D01*
G01*
X147424544Y-97663500D01*
G75*
G02*
X147157000Y-97395956I0J267544D01*
G01*
X147157000Y-96406044D01*
G75*
G02*
X147424544Y-96138500I267544J0D01*
G01*
G37*
G36*
G01*
X147424544Y-93163500D02*
X148739456Y-93163500D01*
G75*
G02*
X149007000Y-93431044I0J-267544D01*
G01*
X149007000Y-94420956D01*
G75*
G02*
X148739456Y-94688500I-267544J0D01*
G01*
X147424544Y-94688500D01*
G75*
G02*
X147157000Y-94420956I0J267544D01*
G01*
X147157000Y-93431044D01*
G75*
G02*
X147424544Y-93163500I267544J0D01*
G01*
G37*
%TD*%
%TO.C,R10*%
G36*
G01*
X147424544Y-91185500D02*
X148739456Y-91185500D01*
G75*
G02*
X149007000Y-91453044I0J-267544D01*
G01*
X149007000Y-92442956D01*
G75*
G02*
X148739456Y-92710500I-267544J0D01*
G01*
X147424544Y-92710500D01*
G75*
G02*
X147157000Y-92442956I0J267544D01*
G01*
X147157000Y-91453044D01*
G75*
G02*
X147424544Y-91185500I267544J0D01*
G01*
G37*
G36*
G01*
X147424544Y-88210500D02*
X148739456Y-88210500D01*
G75*
G02*
X149007000Y-88478044I0J-267544D01*
G01*
X149007000Y-89467956D01*
G75*
G02*
X148739456Y-89735500I-267544J0D01*
G01*
X147424544Y-89735500D01*
G75*
G02*
X147157000Y-89467956I0J267544D01*
G01*
X147157000Y-88478044D01*
G75*
G02*
X147424544Y-88210500I267544J0D01*
G01*
G37*
%TD*%
%TO.C,R9*%
G36*
G01*
X147424544Y-86232500D02*
X148739456Y-86232500D01*
G75*
G02*
X149007000Y-86500044I0J-267544D01*
G01*
X149007000Y-87489956D01*
G75*
G02*
X148739456Y-87757500I-267544J0D01*
G01*
X147424544Y-87757500D01*
G75*
G02*
X147157000Y-87489956I0J267544D01*
G01*
X147157000Y-86500044D01*
G75*
G02*
X147424544Y-86232500I267544J0D01*
G01*
G37*
G36*
G01*
X147424544Y-83257500D02*
X148739456Y-83257500D01*
G75*
G02*
X149007000Y-83525044I0J-267544D01*
G01*
X149007000Y-84514956D01*
G75*
G02*
X148739456Y-84782500I-267544J0D01*
G01*
X147424544Y-84782500D01*
G75*
G02*
X147157000Y-84514956I0J267544D01*
G01*
X147157000Y-83525044D01*
G75*
G02*
X147424544Y-83257500I267544J0D01*
G01*
G37*
%TD*%
%TO.C,C2*%
G36*
G01*
X155670000Y-97864890D02*
X155670000Y-95937110D01*
G75*
G02*
X155931110Y-95676000I261110J0D01*
G01*
X157758890Y-95676000D01*
G75*
G02*
X158020000Y-95937110I0J-261110D01*
G01*
X158020000Y-97864890D01*
G75*
G02*
X157758890Y-98126000I-261110J0D01*
G01*
X155931110Y-98126000D01*
G75*
G02*
X155670000Y-97864890I0J261110D01*
G01*
G37*
G36*
G01*
X150570000Y-97864890D02*
X150570000Y-95937110D01*
G75*
G02*
X150831110Y-95676000I261110J0D01*
G01*
X152658890Y-95676000D01*
G75*
G02*
X152920000Y-95937110I0J-261110D01*
G01*
X152920000Y-97864890D01*
G75*
G02*
X152658890Y-98126000I-261110J0D01*
G01*
X150831110Y-98126000D01*
G75*
G02*
X150570000Y-97864890I0J261110D01*
G01*
G37*
%TD*%
D11*
%TO.C,U1*%
X132560000Y-101575000D03*
X137160000Y-101575000D03*
X134860000Y-101575000D03*
D12*
X134860000Y-95275000D03*
%TD*%
%TO.C,R8*%
G36*
G01*
X139042544Y-97589500D02*
X140357456Y-97589500D01*
G75*
G02*
X140625000Y-97857044I0J-267544D01*
G01*
X140625000Y-98846956D01*
G75*
G02*
X140357456Y-99114500I-267544J0D01*
G01*
X139042544Y-99114500D01*
G75*
G02*
X138775000Y-98846956I0J267544D01*
G01*
X138775000Y-97857044D01*
G75*
G02*
X139042544Y-97589500I267544J0D01*
G01*
G37*
G36*
G01*
X139042544Y-94614500D02*
X140357456Y-94614500D01*
G75*
G02*
X140625000Y-94882044I0J-267544D01*
G01*
X140625000Y-95871956D01*
G75*
G02*
X140357456Y-96139500I-267544J0D01*
G01*
X139042544Y-96139500D01*
G75*
G02*
X138775000Y-95871956I0J267544D01*
G01*
X138775000Y-94882044D01*
G75*
G02*
X139042544Y-94614500I267544J0D01*
G01*
G37*
%TD*%
%TO.C,R7*%
G36*
G01*
X140357456Y-91186500D02*
X139042544Y-91186500D01*
G75*
G02*
X138775000Y-90918956I0J267544D01*
G01*
X138775000Y-89929044D01*
G75*
G02*
X139042544Y-89661500I267544J0D01*
G01*
X140357456Y-89661500D01*
G75*
G02*
X140625000Y-89929044I0J-267544D01*
G01*
X140625000Y-90918956D01*
G75*
G02*
X140357456Y-91186500I-267544J0D01*
G01*
G37*
G36*
G01*
X140357456Y-94161500D02*
X139042544Y-94161500D01*
G75*
G02*
X138775000Y-93893956I0J267544D01*
G01*
X138775000Y-92904044D01*
G75*
G02*
X139042544Y-92636500I267544J0D01*
G01*
X140357456Y-92636500D01*
G75*
G02*
X140625000Y-92904044I0J-267544D01*
G01*
X140625000Y-93893956D01*
G75*
G02*
X140357456Y-94161500I-267544J0D01*
G01*
G37*
%TD*%
%TO.C,R6*%
G36*
G01*
X139042544Y-87629500D02*
X140357456Y-87629500D01*
G75*
G02*
X140625000Y-87897044I0J-267544D01*
G01*
X140625000Y-88886956D01*
G75*
G02*
X140357456Y-89154500I-267544J0D01*
G01*
X139042544Y-89154500D01*
G75*
G02*
X138775000Y-88886956I0J267544D01*
G01*
X138775000Y-87897044D01*
G75*
G02*
X139042544Y-87629500I267544J0D01*
G01*
G37*
G36*
G01*
X139042544Y-84654500D02*
X140357456Y-84654500D01*
G75*
G02*
X140625000Y-84922044I0J-267544D01*
G01*
X140625000Y-85911956D01*
G75*
G02*
X140357456Y-86179500I-267544J0D01*
G01*
X139042544Y-86179500D01*
G75*
G02*
X138775000Y-85911956I0J267544D01*
G01*
X138775000Y-84922044D01*
G75*
G02*
X139042544Y-84654500I267544J0D01*
G01*
G37*
%TD*%
%TO.C,R5*%
G36*
G01*
X140357456Y-81226500D02*
X139042544Y-81226500D01*
G75*
G02*
X138775000Y-80958956I0J267544D01*
G01*
X138775000Y-79969044D01*
G75*
G02*
X139042544Y-79701500I267544J0D01*
G01*
X140357456Y-79701500D01*
G75*
G02*
X140625000Y-79969044I0J-267544D01*
G01*
X140625000Y-80958956D01*
G75*
G02*
X140357456Y-81226500I-267544J0D01*
G01*
G37*
G36*
G01*
X140357456Y-84201500D02*
X139042544Y-84201500D01*
G75*
G02*
X138775000Y-83933956I0J267544D01*
G01*
X138775000Y-82944044D01*
G75*
G02*
X139042544Y-82676500I267544J0D01*
G01*
X140357456Y-82676500D01*
G75*
G02*
X140625000Y-82944044I0J-267544D01*
G01*
X140625000Y-83933956D01*
G75*
G02*
X140357456Y-84201500I-267544J0D01*
G01*
G37*
%TD*%
%TO.C,R4*%
G36*
G01*
X146453456Y-96176000D02*
X145138544Y-96176000D01*
G75*
G02*
X144871000Y-95908456I0J267544D01*
G01*
X144871000Y-94918544D01*
G75*
G02*
X145138544Y-94651000I267544J0D01*
G01*
X146453456Y-94651000D01*
G75*
G02*
X146721000Y-94918544I0J-267544D01*
G01*
X146721000Y-95908456D01*
G75*
G02*
X146453456Y-96176000I-267544J0D01*
G01*
G37*
G36*
G01*
X146453456Y-99151000D02*
X145138544Y-99151000D01*
G75*
G02*
X144871000Y-98883456I0J267544D01*
G01*
X144871000Y-97893544D01*
G75*
G02*
X145138544Y-97626000I267544J0D01*
G01*
X146453456Y-97626000D01*
G75*
G02*
X146721000Y-97893544I0J-267544D01*
G01*
X146721000Y-98883456D01*
G75*
G02*
X146453456Y-99151000I-267544J0D01*
G01*
G37*
%TD*%
%TO.C,R3*%
G36*
G01*
X146453456Y-91186500D02*
X145138544Y-91186500D01*
G75*
G02*
X144871000Y-90918956I0J267544D01*
G01*
X144871000Y-89929044D01*
G75*
G02*
X145138544Y-89661500I267544J0D01*
G01*
X146453456Y-89661500D01*
G75*
G02*
X146721000Y-89929044I0J-267544D01*
G01*
X146721000Y-90918956D01*
G75*
G02*
X146453456Y-91186500I-267544J0D01*
G01*
G37*
G36*
G01*
X146453456Y-94161500D02*
X145138544Y-94161500D01*
G75*
G02*
X144871000Y-93893956I0J267544D01*
G01*
X144871000Y-92904044D01*
G75*
G02*
X145138544Y-92636500I267544J0D01*
G01*
X146453456Y-92636500D01*
G75*
G02*
X146721000Y-92904044I0J-267544D01*
G01*
X146721000Y-93893956D01*
G75*
G02*
X146453456Y-94161500I-267544J0D01*
G01*
G37*
%TD*%
%TO.C,R2*%
G36*
G01*
X146453456Y-86179500D02*
X145138544Y-86179500D01*
G75*
G02*
X144871000Y-85911956I0J267544D01*
G01*
X144871000Y-84922044D01*
G75*
G02*
X145138544Y-84654500I267544J0D01*
G01*
X146453456Y-84654500D01*
G75*
G02*
X146721000Y-84922044I0J-267544D01*
G01*
X146721000Y-85911956D01*
G75*
G02*
X146453456Y-86179500I-267544J0D01*
G01*
G37*
G36*
G01*
X146453456Y-89154500D02*
X145138544Y-89154500D01*
G75*
G02*
X144871000Y-88886956I0J267544D01*
G01*
X144871000Y-87897044D01*
G75*
G02*
X145138544Y-87629500I267544J0D01*
G01*
X146453456Y-87629500D01*
G75*
G02*
X146721000Y-87897044I0J-267544D01*
G01*
X146721000Y-88886956D01*
G75*
G02*
X146453456Y-89154500I-267544J0D01*
G01*
G37*
%TD*%
%TO.C,R1*%
G36*
G01*
X146453456Y-81226500D02*
X145138544Y-81226500D01*
G75*
G02*
X144871000Y-80958956I0J267544D01*
G01*
X144871000Y-79969044D01*
G75*
G02*
X145138544Y-79701500I267544J0D01*
G01*
X146453456Y-79701500D01*
G75*
G02*
X146721000Y-79969044I0J-267544D01*
G01*
X146721000Y-80958956D01*
G75*
G02*
X146453456Y-81226500I-267544J0D01*
G01*
G37*
G36*
G01*
X146453456Y-84201500D02*
X145138544Y-84201500D01*
G75*
G02*
X144871000Y-83933956I0J267544D01*
G01*
X144871000Y-82944044D01*
G75*
G02*
X145138544Y-82676500I267544J0D01*
G01*
X146453456Y-82676500D01*
G75*
G02*
X146721000Y-82944044I0J-267544D01*
G01*
X146721000Y-83933956D01*
G75*
G02*
X146453456Y-84201500I-267544J0D01*
G01*
G37*
%TD*%
D13*
%TO.C,Q4*%
X141748000Y-96837500D03*
X143748000Y-95887500D03*
X143748000Y-97787500D03*
%TD*%
%TO.C,Q3*%
X141764000Y-91882000D03*
X143764000Y-90932000D03*
X143764000Y-92832000D03*
%TD*%
%TO.C,Q2*%
X141764000Y-86934000D03*
X143764000Y-85984000D03*
X143764000Y-87884000D03*
%TD*%
%TO.C,Q1*%
X141748000Y-81981000D03*
X143748000Y-81031000D03*
X143748000Y-82931000D03*
%TD*%
%TO.C,C1*%
G36*
G01*
X135201500Y-82654544D02*
X135201500Y-83969456D01*
G75*
G02*
X134933956Y-84237000I-267544J0D01*
G01*
X133944044Y-84237000D01*
G75*
G02*
X133676500Y-83969456I0J267544D01*
G01*
X133676500Y-82654544D01*
G75*
G02*
X133944044Y-82387000I267544J0D01*
G01*
X134933956Y-82387000D01*
G75*
G02*
X135201500Y-82654544I0J-267544D01*
G01*
G37*
G36*
G01*
X138176500Y-82654544D02*
X138176500Y-83969456D01*
G75*
G02*
X137908956Y-84237000I-267544J0D01*
G01*
X136919044Y-84237000D01*
G75*
G02*
X136651500Y-83969456I0J267544D01*
G01*
X136651500Y-82654544D01*
G75*
G02*
X136919044Y-82387000I267544J0D01*
G01*
X137908956Y-82387000D01*
G75*
G02*
X138176500Y-82654544I0J-267544D01*
G01*
G37*
%TD*%
M02*
